<svg width="320" height="294" viewBox="0 0 320 294" fill="none" xmlns="http://www.w3.org/2000/svg">
<g filter="url(#filter0_b_238_8344)">
<path d="M213.673 124.56C194.823 135.715 170.873 122.282 170.562 100.382L169.941 56.5778C169.63 34.6773 193.192 20.734 212.353 31.48L250.676 52.9731C269.836 63.719 270.225 91.0947 251.375 102.249L213.673 124.56Z" fill="#EF4D9C" fill-opacity="0.6"/>
</g>
<path d="M281.119 185.647C285.919 182.876 291.832 182.876 296.632 185.647L329.818 204.807C334.617 207.578 337.574 212.699 337.574 218.241V256.561C337.574 262.103 334.617 267.224 329.818 269.995L296.632 289.155C291.832 291.926 285.919 291.926 281.119 289.155L247.933 269.995C243.134 267.224 240.177 262.103 240.177 256.561V218.241C240.177 212.699 243.134 207.578 247.933 204.807L281.119 185.647Z" fill="#71BD44"/>
<g filter="url(#filter1_f_238_8344)">
<path d="M5.4293 32.0969C8.19377 36.9001 8.18573 42.8133 5.40821 47.6091L-7.12478 69.2489C-9.9023 74.0446 -15.0273 76.9943 -20.5693 76.9867L-45.5764 76.9528C-51.1184 76.9452 -56.2354 73.9817 -58.9999 69.1784L-71.474 47.5046C-74.2385 42.7013 -74.2304 36.7881 -71.4529 31.9924L-58.9199 10.3525C-56.1424 5.55681 -51.0174 2.60716 -45.4754 2.61469L-20.4683 2.64868C-14.9263 2.65621 -9.8093 5.61978 -7.04483 10.423L5.4293 32.0969Z" fill="#50DAF5" fill-opacity="0.5"/>
</g>
<g opacity="0.5" filter="url(#filter2_bf_238_8344)">
<path d="M193.475 105.547C193.475 173.227 138.609 228.093 70.9286 228.093C3.24788 228.093 -51.6182 173.227 -51.6182 105.547C-51.6182 37.866 3.24788 -17 70.9286 -17C138.609 -17 193.475 37.866 193.475 105.547Z" fill="#FFDD00"/>
<path d="M193.475 105.547C193.475 173.227 138.609 228.093 70.9286 228.093C3.24788 228.093 -51.6182 173.227 -51.6182 105.547C-51.6182 37.866 3.24788 -17 70.9286 -17C138.609 -17 193.475 37.866 193.475 105.547Z" fill="#FFDD00"/>
</g>
<g filter="url(#filter3_b_238_8344)">
<path d="M337.11 127.268C336.495 137.816 324.667 143.782 315.82 138.006L298.123 126.453C289.276 120.677 290.044 107.491 299.507 102.719L318.432 93.1742C327.894 88.402 338.954 95.622 338.339 106.17L337.11 127.268Z" fill="#50DAF5"/>
</g>
<g filter="url(#filter4_b_238_8344)">
<path d="M161.296 253.523C164.615 262.584 156.873 271.881 147.36 270.257L128.334 267.009C118.822 265.386 114.673 254.059 120.867 246.621L133.255 231.745C139.449 224.307 151.339 226.337 154.658 235.399L161.296 253.523Z" fill="#EF4D9C" fill-opacity="0.5"/>
</g>
<path d="M215.788 188.803L78.5763 212.344L49.2793 193.826L170.797 178.011L215.788 188.803Z" fill="#666666"/>
<path d="M78.8549 211.786L49 193.547V81.6574L78.8549 90.4083V211.786Z" fill="#808080"/>
<path d="M78.2973 211.228H77.7395L49.5578 193.547L49 81.6577C49 81.6577 59.8546 86.4099 78.2973 90.9664V211.228Z" fill="white"/>
<path d="M77.7395 211.228L49 193.547V81.9365C49 81.9365 58.0608 86.4408 77.7395 91.5242V211.228Z" fill="url(#paint0_linear_238_8344)"/>
<path d="M78.8545 211.786L216.067 188.524V77.4715L78.8545 91.2455V211.786Z" fill="url(#paint1_linear_238_8344)"/>
<path d="M184.26 69L49.001 81.6574L78.8559 90.4083L216.068 76.6343L184.26 69Z" fill="url(#paint2_linear_238_8344)"/>
<path d="M216.067 77.4715L78.8545 91.5245V90.4082L216.067 76.6343V77.4715Z" fill="url(#paint3_linear_238_8344)"/>
<path d="M78.2971 204.36H77.7392L76.9023 202.686V101.246L77.7392 99.5721H78.2971V204.36Z" fill="url(#paint4_linear_238_8344)"/>
<path d="M78.2971 101.409L76.9023 101.246L77.7392 99.5721H78.2971V101.409Z" fill="#808080"/>
<path d="M76.9023 202.686H78.2971V204.36H77.7054L76.9023 202.686Z" fill="white"/>
<path d="M275.72 229.642L138.508 253.183L109.211 234.665L230.729 218.85L275.72 229.642Z" fill="#666666"/>
<path d="M138.787 252.624L108.932 234.386V122.496L138.787 131.247V252.624Z" fill="#808080"/>
<path d="M138.229 252.066H137.671L109.489 234.386L108.932 122.497C108.932 122.497 119.786 127.249 138.229 131.805V252.066Z" fill="white"/>
<path d="M137.671 252.066L108.932 234.386V122.775C108.932 122.775 117.992 127.28 137.671 132.363V252.066Z" fill="url(#paint5_linear_238_8344)"/>
<path d="M138.786 252.624L275.998 229.363V118.31L138.786 132.084V252.624Z" fill="url(#paint6_linear_238_8344)"/>
<path d="M244.192 109.839L108.933 122.496L138.788 131.247L276 117.473L244.192 109.839Z" fill="url(#paint7_linear_238_8344)"/>
<path d="M275.998 118.31L138.786 132.363V131.247L275.998 117.473V118.31Z" fill="url(#paint8_linear_238_8344)"/>
<path d="M138.229 245.199H137.671L136.834 243.525V142.085L137.671 140.411H138.229V245.199Z" fill="url(#paint9_linear_238_8344)"/>
<path d="M138.229 142.248L136.834 142.085L137.671 140.411H138.229V142.248Z" fill="#808080"/>
<path d="M136.834 243.525H138.229V245.199H137.637L136.834 243.525Z" fill="white"/>
<g filter="url(#filter5_b_238_8344)">
<path d="M298.019 120.31C302.072 119.845 306.066 121.577 308.495 124.854C310.925 128.131 311.421 132.456 309.798 136.199C308.174 139.941 304.677 142.533 300.624 142.999C296.571 143.464 292.578 141.732 290.149 138.455C287.719 135.177 287.223 130.853 288.846 127.11C290.47 123.368 293.966 120.775 298.019 120.31Z" fill="#F9931F" fill-opacity="0.6"/>
</g>
<g filter="url(#filter6_b_238_8344)">
<path d="M35.8254 148.759C41.2289 145.64 47.8862 145.64 53.2896 148.759C58.6931 151.879 62.0217 157.644 62.0217 163.884C62.0217 170.123 58.6931 175.888 53.2896 179.008C47.8862 182.128 41.2289 182.128 35.8254 179.008C30.422 175.888 27.0933 170.123 27.0933 163.884C27.0933 157.644 30.422 151.879 35.8254 148.759Z" fill="#5EE5FF" fill-opacity="0.4"/>
</g>
<defs>
<filter id="filter0_b_238_8344" x="138.913" y="-3.24733" width="157.394" height="162.84" filterUnits="userSpaceOnUse" color-interpolation-filters="sRGB">
<feFlood flood-opacity="0" result="BackgroundImageFix"/>
<feGaussianBlur in="BackgroundImageFix" stdDeviation="15.5122"/>
<feComposite in2="SourceAlpha" operator="in" result="effect1_backgroundBlur_238_8344"/>
<feBlend mode="normal" in="SourceGraphic" in2="effect1_backgroundBlur_238_8344" result="shape"/>
</filter>
<filter id="filter1_f_238_8344" x="-81.2981" y="-5.14144" width="96.5513" height="89.8843" filterUnits="userSpaceOnUse" color-interpolation-filters="sRGB">
<feFlood flood-opacity="0" result="BackgroundImageFix"/>
<feBlend mode="normal" in="SourceGraphic" in2="BackgroundImageFix" result="shape"/>
<feGaussianBlur stdDeviation="3.87806" result="effect1_foregroundBlur_238_8344"/>
</filter>
<filter id="filter2_bf_238_8344" x="-57.4353" y="-22.8171" width="256.728" height="256.728" filterUnits="userSpaceOnUse" color-interpolation-filters="sRGB">
<feFlood flood-opacity="0" result="BackgroundImageFix"/>
<feGaussianBlur in="BackgroundImageFix" stdDeviation="2.90855"/>
<feComposite in2="SourceAlpha" operator="in" result="effect1_backgroundBlur_238_8344"/>
<feBlend mode="normal" in="SourceGraphic" in2="effect1_backgroundBlur_238_8344" result="shape"/>
<feGaussianBlur stdDeviation="1.93903" result="effect2_foregroundBlur_238_8344"/>
</filter>
<filter id="filter3_b_238_8344" x="284.169" y="83.9169" width="61.9507" height="64.0965" filterUnits="userSpaceOnUse" color-interpolation-filters="sRGB">
<feFlood flood-opacity="0" result="BackgroundImageFix"/>
<feGaussianBlur in="BackgroundImageFix" stdDeviation="3.87806"/>
<feComposite in2="SourceAlpha" operator="in" result="effect1_backgroundBlur_238_8344"/>
<feBlend mode="normal" in="SourceGraphic" in2="effect1_backgroundBlur_238_8344" result="shape"/>
</filter>
<filter id="filter4_b_238_8344" x="110.178" y="219.447" width="59.6548" height="58.7529" filterUnits="userSpaceOnUse" color-interpolation-filters="sRGB">
<feFlood flood-opacity="0" result="BackgroundImageFix"/>
<feGaussianBlur in="BackgroundImageFix" stdDeviation="3.87806"/>
<feComposite in2="SourceAlpha" operator="in" result="effect1_backgroundBlur_238_8344"/>
<feBlend mode="normal" in="SourceGraphic" in2="effect1_backgroundBlur_238_8344" result="shape"/>
</filter>
<filter id="filter5_b_238_8344" x="282.085" y="114.418" width="34.4731" height="34.4723" filterUnits="userSpaceOnUse" color-interpolation-filters="sRGB">
<feFlood flood-opacity="0" result="BackgroundImageFix"/>
<feGaussianBlur in="BackgroundImageFix" stdDeviation="2.90855"/>
<feComposite in2="SourceAlpha" operator="in" result="effect1_backgroundBlur_238_8344"/>
<feBlend mode="normal" in="SourceGraphic" in2="effect1_backgroundBlur_238_8344" result="shape"/>
</filter>
<filter id="filter6_b_238_8344" x="21.2767" y="140.602" width="46.5619" height="46.5626" filterUnits="userSpaceOnUse" color-interpolation-filters="sRGB">
<feFlood flood-opacity="0" result="BackgroundImageFix"/>
<feGaussianBlur in="BackgroundImageFix" stdDeviation="2.90855"/>
<feComposite in2="SourceAlpha" operator="in" result="effect1_backgroundBlur_238_8344"/>
<feBlend mode="normal" in="SourceGraphic" in2="effect1_backgroundBlur_238_8344" result="shape"/>
</filter>
<linearGradient id="paint0_linear_238_8344" x1="47.3806" y1="147.141" x2="79.6415" y2="146.015" gradientUnits="userSpaceOnUse">
<stop stop-color="#E6E6E6"/>
<stop offset="1" stop-color="#CFCFCF"/>
</linearGradient>
<linearGradient id="paint1_linear_238_8344" x1="197.402" y1="155.795" x2="168.124" y2="82.5932" gradientUnits="userSpaceOnUse">
<stop stop-color="#EAEAEB"/>
<stop offset="0.9947" stop-color="#FAFAFA"/>
<stop offset="1" stop-color="#FAFAFA"/>
</linearGradient>
<linearGradient id="paint2_linear_238_8344" x1="132.116" y1="74.3617" x2="133.036" y2="84.8648" gradientUnits="userSpaceOnUse">
<stop stop-color="#EDEDED"/>
<stop offset="1" stop-color="#E8E8E8"/>
</linearGradient>
<linearGradient id="paint3_linear_238_8344" x1="78.8546" y1="84.0794" x2="216.067" y2="84.0794" gradientUnits="userSpaceOnUse">
<stop stop-color="white"/>
<stop offset="0.9637" stop-color="white"/>
<stop offset="1" stop-color="#F2F2F2"/>
</linearGradient>
<linearGradient id="paint4_linear_238_8344" x1="76.9024" y1="151.966" x2="78.2972" y2="151.966" gradientUnits="userSpaceOnUse">
<stop stop-color="white"/>
<stop offset="0.601" stop-color="#CFCFCF"/>
<stop offset="1" stop-color="#808080"/>
</linearGradient>
<linearGradient id="paint5_linear_238_8344" x1="107.312" y1="187.98" x2="139.573" y2="186.854" gradientUnits="userSpaceOnUse">
<stop stop-color="#E6E6E6"/>
<stop offset="1" stop-color="#CFCFCF"/>
</linearGradient>
<linearGradient id="paint6_linear_238_8344" x1="257.334" y1="196.634" x2="228.055" y2="123.432" gradientUnits="userSpaceOnUse">
<stop stop-color="#EAEAEB"/>
<stop offset="0.9947" stop-color="#FAFAFA"/>
<stop offset="1" stop-color="#FAFAFA"/>
</linearGradient>
<linearGradient id="paint7_linear_238_8344" x1="192.048" y1="115.201" x2="192.967" y2="125.704" gradientUnits="userSpaceOnUse">
<stop stop-color="#EDEDED"/>
<stop offset="1" stop-color="#E8E8E8"/>
</linearGradient>
<linearGradient id="paint8_linear_238_8344" x1="138.786" y1="124.918" x2="275.998" y2="124.918" gradientUnits="userSpaceOnUse">
<stop stop-color="white"/>
<stop offset="0.9637" stop-color="white"/>
<stop offset="1" stop-color="#F2F2F2"/>
</linearGradient>
<linearGradient id="paint9_linear_238_8344" x1="136.834" y1="192.805" x2="138.229" y2="192.805" gradientUnits="userSpaceOnUse">
<stop stop-color="white"/>
<stop offset="0.601" stop-color="#CFCFCF"/>
<stop offset="1" stop-color="#808080"/>
</linearGradient>
</defs>
</svg>
