<svg width="62" height="62" viewBox="0 0 62 62" fill="none" xmlns="http://www.w3.org/2000/svg">
<path d="M30.9993 62C13.907 62 0 48.0933 0 31C0 13.9067 13.907 -1.52588e-05 30.9993 -1.52588e-05C48.093 -1.52588e-05 62 13.9067 62 31C62 48.0933 48.093 62 30.9993 62ZM30.9993 1.14742C14.5378 1.14742 1.14615 14.5388 1.14615 31C1.14615 47.4612 14.5378 60.8513 30.9993 60.8513C47.4609 60.8513 60.8526 47.4612 60.8526 31C60.8526 14.5388 47.4596 1.14742 30.9993 1.14742Z" fill="#E1BB26"/>
<path d="M26.7394 28.7008C29.1202 30.9198 31.5021 33.1399 33.8829 35.3588C34.3236 35.7694 34.9874 35.1089 34.5456 34.6961C32.1648 32.4772 29.7829 30.2571 27.4021 28.0381C26.9603 27.6276 26.2965 28.2891 26.7394 28.7008Z" fill="#E1BB26"/>
<path d="M27.0698 33.0886C29.6761 33.0886 31.7889 30.9758 31.7889 28.3695C31.7889 25.7632 29.6761 23.6504 27.0698 23.6504C24.4634 23.6504 22.3506 25.7632 22.3506 28.3695C22.3506 30.9758 24.4634 33.0886 27.0698 33.0886Z" fill="#FFDD00"/>
<path d="M27.0673 33.5816C24.2771 33.5816 21.9599 31.3627 21.8606 28.5535C21.8126 27.1613 22.3069 25.8348 23.2563 24.8162C24.2057 23.7977 25.4943 23.2097 26.8855 23.1606C28.2666 23.1171 29.6032 23.6069 30.6218 24.5563C31.6403 25.5057 32.2283 26.7953 32.2774 28.1854C32.3778 31.0581 30.1231 33.4768 27.2514 33.5783C27.1912 33.5805 27.1287 33.5816 27.0673 33.5816ZM27.0718 24.1435C27.0227 24.1435 26.9725 24.1446 26.9223 24.1457C25.7933 24.1859 24.749 24.6623 23.9792 25.4878C23.2105 26.3134 22.8089 27.39 22.848 28.5178C22.9294 30.8461 24.9041 32.7092 27.2191 32.5921C28.3481 32.5519 29.3923 32.0756 30.1621 31.25C30.9319 30.4233 31.3335 29.3479 31.2945 28.22C31.2131 25.9419 29.3343 24.1435 27.0718 24.1435Z" fill="#E1BB26"/>
<path d="M26.1411 29.0122C26.9347 29.0122 27.578 28.3688 27.578 27.5753C27.578 26.7817 26.9347 26.1383 26.1411 26.1383C25.3474 26.1383 24.7041 26.7817 24.7041 27.5753C24.7041 28.3688 25.3474 29.0122 26.1411 29.0122Z" fill="#FFDD00"/>
<path d="M26.1412 29.5053C25.1081 29.5053 24.2491 28.6843 24.2123 27.6434C24.1933 27.128 24.3774 26.6371 24.7288 26.2611C25.0802 25.8829 25.5577 25.6654 26.0732 25.6475C26.5864 25.6286 27.0795 25.8138 27.4566 26.1652C27.8337 26.5166 28.0512 26.993 28.0702 27.5084C28.1081 28.5727 27.2725 29.4674 26.2093 29.5053C26.187 29.5053 26.1635 29.5053 26.1412 29.5053ZM26.1423 26.6315C26.1312 26.6315 26.12 26.6315 26.1089 26.6326C25.8556 26.6416 25.6236 26.7475 25.4506 26.9327C25.2799 27.1168 25.1885 27.3567 25.1985 27.6077C25.2074 27.8609 25.3134 28.0941 25.4986 28.2659C25.6827 28.4366 25.8969 28.5381 26.1758 28.518C26.6957 28.4991 27.1029 28.0617 27.0851 27.5419C27.0761 27.2908 26.9701 27.0566 26.7849 26.8859C26.6087 26.7219 26.3822 26.6315 26.1423 26.6315Z" fill="#E1BB26"/>
<path d="M33.9741 17.9296C32.8049 19.4914 31.6357 21.0544 30.4676 22.6163C30.1061 23.0994 30.9183 23.5668 31.2765 23.0893C32.4457 21.5275 33.6148 19.9645 34.784 18.4026C35.1444 17.9195 34.3311 17.4521 33.9741 17.9296Z" fill="#E1BB26"/>
<path d="M35.0683 18.5944C35.8619 18.5944 36.5052 17.9511 36.5052 17.1575C36.5052 16.3639 35.8619 15.7206 35.0683 15.7206C34.2747 15.7206 33.6313 16.3639 33.6313 17.1575C33.6313 17.9511 34.2747 18.5944 35.0683 18.5944Z" fill="#FFDD00"/>
<path d="M35.064 19.0886C34.6501 19.0886 34.2485 18.9558 33.9116 18.7037C33.4988 18.3947 33.231 17.944 33.1574 17.433C33.0837 16.9221 33.2132 16.4145 33.5222 16.0017C33.8301 15.5878 34.2819 15.3211 34.7929 15.2464C35.8405 15.0947 36.8267 15.8299 36.9773 16.8819C37.0499 17.3917 36.9216 17.9005 36.6125 18.3132C36.3035 18.7271 35.8528 18.9938 35.3418 19.0674C35.2492 19.0819 35.1566 19.0886 35.064 19.0886ZM35.0685 16.2148C35.0227 16.2148 34.9792 16.217 34.9335 16.2248C34.6836 16.2605 34.4638 16.391 34.3121 16.5941C34.1615 16.7949 34.0979 17.0448 34.1336 17.2936C34.1693 17.5435 34.2998 17.7632 34.5017 17.915C34.7037 18.0667 34.9547 18.1303 35.2012 18.0935C35.4511 18.0578 35.6709 17.9272 35.8226 17.7253C35.9744 17.5234 36.0369 17.2746 36.0012 17.0258C35.9342 16.5539 35.5292 16.2148 35.0685 16.2148Z" fill="#E1BB26"/>
<path d="M27.2764 12.6191C28.8383 13.7883 30.4013 14.9575 31.9632 16.1255C32.4463 16.487 32.9137 15.6737 32.4363 15.3167C30.8744 14.1475 29.3124 12.9795 27.7494 11.8103C27.2664 11.4488 26.7989 12.2621 27.2764 12.6191Z" fill="#E1BB26"/>
<path d="M26.5058 12.9615C27.2994 12.9615 27.9427 12.3181 27.9427 11.5245C27.9427 10.731 27.2994 10.0876 26.5058 10.0876C25.7122 10.0876 25.0688 10.731 25.0688 11.5245C25.0688 12.3181 25.7122 12.9615 26.5058 12.9615Z" fill="#FFDD00"/>
<path d="M26.5001 13.4547C26.0873 13.4547 25.6868 13.322 25.3499 13.0699C24.936 12.7619 24.6693 12.3101 24.5946 11.7992C24.4428 10.746 25.1769 9.76538 26.229 9.61478C26.7355 9.54226 27.2476 9.67056 27.6604 9.97958C28.0743 10.2875 28.3409 10.7393 28.4157 11.2503C28.5674 12.3034 27.8333 13.284 26.7812 13.4347C26.6875 13.4492 26.5938 13.4547 26.5001 13.4547ZM26.5079 10.5809C26.461 10.5809 26.4164 10.5842 26.3696 10.5921C25.8552 10.6657 25.496 11.1443 25.5708 11.6597C25.6065 11.9096 25.737 12.1294 25.94 12.2811C26.1431 12.4328 26.3896 12.4931 26.6395 12.4596C27.155 12.386 27.5131 11.9074 27.4395 11.392C27.4038 11.1421 27.2732 10.9223 27.0702 10.7706C26.9051 10.6456 26.7098 10.5809 26.5079 10.5809Z" fill="#E1BB26"/>
<path d="M42.7297 22.3986C41.1678 21.2294 39.6048 20.0602 38.0429 18.8911C37.5598 18.5296 37.0924 19.3429 37.5699 19.6999C39.1318 20.8691 40.6937 22.0382 42.2567 23.2074C42.7386 23.5677 43.2072 22.7556 42.7297 22.3986Z" fill="#E1BB26"/>
<path d="M43.5004 24.9288C44.294 24.9288 44.9374 24.2855 44.9374 23.4919C44.9374 22.6983 44.294 22.055 43.5004 22.055C42.7068 22.055 42.0635 22.6983 42.0635 23.4919C42.0635 24.2855 42.7068 24.9288 43.5004 24.9288Z" fill="#FFDD00"/>
<path d="M43.4959 25.4219C43.0831 25.4219 42.6826 25.2891 42.3457 25.0359C41.9318 24.728 41.6652 24.2761 41.5915 23.7663C41.519 23.2554 41.6473 22.7477 41.9575 22.335C42.2665 21.9211 42.7172 21.6544 43.2271 21.5808C43.7324 21.5072 44.2456 21.6366 44.6584 21.9456C45.0712 22.2546 45.339 22.7054 45.4126 23.2152C45.4862 23.7261 45.3568 24.2349 45.0478 24.6465C44.7399 25.0604 44.288 25.3271 43.7782 25.4007C43.6822 25.4152 43.5885 25.4219 43.4959 25.4219ZM43.5026 22.548C43.4569 22.548 43.4123 22.5514 43.3654 22.5581C43.1166 22.5938 42.8957 22.7243 42.744 22.9262C42.5934 23.1293 42.5298 23.377 42.5655 23.6269C42.6012 23.8768 42.7317 24.0976 42.9336 24.2483C43.1367 24.3989 43.3855 24.4625 43.6343 24.4268C43.8842 24.3911 44.1051 24.2605 44.2557 24.0586C44.4063 23.8556 44.4699 23.6079 44.4342 23.358C44.3985 23.1092 44.268 22.8883 44.066 22.7366C43.9009 22.6128 43.7057 22.548 43.5026 22.548Z" fill="#E1BB26"/>
<path d="M21.9049 44.3618C22.6635 41.1968 23.4222 38.0306 24.1808 34.8645C24.3203 34.2788 23.4177 34.0278 23.2771 34.6157C22.5185 37.7807 21.761 40.9469 21.0023 44.113C20.8606 44.6987 21.7643 44.9486 21.9049 44.3618Z" fill="#E1BB26"/>
<path d="M21.4531 48.956C24.0594 48.956 26.1722 46.8432 26.1722 44.2369C26.1722 41.6307 24.0594 39.5179 21.4531 39.5179C18.8467 39.5179 16.7339 41.6307 16.7339 44.2369C16.7339 46.8432 18.8467 48.956 21.4531 48.956Z" fill="#FFDD00"/>
<path d="M21.4621 49.4513C21.0549 49.4513 20.6444 49.4033 20.2394 49.3062C18.885 48.9816 17.7381 48.1494 17.0107 46.9634C16.2822 45.7775 16.0591 44.3786 16.3837 43.0242C16.7084 41.671 17.5406 40.5241 18.7266 39.7967C19.9136 39.0682 21.3149 38.8462 22.6659 39.1697C24.0203 39.4944 25.1672 40.3266 25.8946 41.5125C26.6231 42.6984 26.8462 44.0974 26.5216 45.4518C26.1969 46.8061 25.3646 47.953 24.1787 48.6804C23.3476 49.1891 22.4127 49.4513 21.4621 49.4513ZM21.4454 40.0098C20.6745 40.0098 19.9158 40.2229 19.2431 40.6357C18.2803 41.2258 17.6065 42.1562 17.3432 43.2529C17.081 44.3507 17.2606 45.4853 17.8508 46.4469C18.441 47.4097 19.3714 48.0835 20.4681 48.3468C21.5659 48.6101 22.6994 48.4294 23.6622 47.8392C24.625 47.249 25.2999 46.3186 25.5621 45.222C25.8254 44.1242 25.6447 42.9896 25.0545 42.0279C24.4643 41.0652 23.5339 40.3913 22.4372 40.1281C22.1081 40.0488 21.7756 40.0098 21.4454 40.0098Z" fill="#E1BB26"/>
<path d="M21.2192 46.8732C22.0128 46.8732 22.6561 46.2299 22.6561 45.4363C22.6561 44.6427 22.0128 43.9994 21.2192 43.9994C20.4256 43.9994 19.7822 44.6427 19.7822 45.4363C19.7822 46.2299 20.4256 46.8732 21.2192 46.8732Z" fill="#FFDD00"/>
<path d="M21.2224 47.3651C20.572 47.3651 19.9383 47.0383 19.5746 46.4459C19.0179 45.5389 19.3035 44.3474 20.2094 43.7918C21.1164 43.2362 22.309 43.5196 22.8635 44.4266C23.4202 45.3336 23.1357 46.5251 22.2287 47.0807C21.9152 47.2737 21.566 47.3651 21.2224 47.3651ZM20.7259 44.6319C20.283 44.9041 20.1436 45.4864 20.4147 45.9293C20.688 46.3734 21.2704 46.5106 21.7133 46.2406C22.1562 45.9673 22.2956 45.3849 22.0245 44.942C21.7523 44.4991 21.1688 44.363 20.7259 44.6319Z" fill="#E1BB26"/>
<path d="M38.4566 40.6926C35.3752 41.7435 32.2949 42.7933 29.2135 43.8442C28.6457 44.0383 28.8889 44.9431 29.4623 44.7479C32.5437 43.697 35.624 42.646 38.7054 41.5951C39.2733 41.4032 39.0301 40.4973 38.4566 40.6926Z" fill="#E1BB26"/>
<path d="M38.582 45.8635C41.1883 45.8635 43.3011 43.7507 43.3011 41.1444C43.3011 38.5382 41.1883 36.4254 38.582 36.4254C35.9756 36.4254 33.8628 38.5382 33.8628 41.1444C33.8628 43.7507 35.9756 45.8635 38.582 45.8635Z" fill="#FFDD00"/>
<path d="M38.574 46.3566C37.8031 46.3566 37.021 46.1848 36.2825 45.8222V45.8211C33.7031 44.5537 32.6366 41.4244 33.9028 38.8462C35.1713 36.2669 38.2973 35.197 40.8801 36.4677C42.1296 37.0813 43.0645 38.1445 43.5152 39.4632C43.9637 40.7807 43.8733 42.1942 43.2586 43.4437C42.3549 45.2845 40.4996 46.3566 38.574 46.3566ZM36.7176 44.9375C38.8072 45.9661 41.3475 45.1004 42.3739 43.0086C42.8726 41.9956 42.9462 40.8499 42.5825 39.78C42.2177 38.7123 41.4591 37.85 40.445 37.3524C39.4331 36.8548 38.2851 36.7812 37.2174 37.1438C36.1486 37.5086 35.2862 38.2672 34.7875 39.2813C33.7611 41.372 34.628 43.91 36.7176 44.9375Z" fill="#E1BB26"/>
<path d="M39.7197 42.1383C40.5133 42.1383 41.1566 41.4949 41.1566 40.7014C41.1566 39.9078 40.5133 39.2644 39.7197 39.2644C38.9261 39.2644 38.2827 39.9078 38.2827 40.7014C38.2827 41.4949 38.9261 42.1383 39.7197 42.1383Z" fill="#FFDD00"/>
<path d="M39.7163 42.6304C39.4318 42.6304 39.1417 42.5679 38.8695 42.4341V42.4329C37.9145 41.9644 37.5196 40.8042 37.9871 39.8503C38.4579 38.8964 39.6148 38.4982 40.572 38.9701C41.5259 39.4375 41.9208 40.5966 41.4534 41.5516C41.1176 42.2355 40.4292 42.6304 39.7163 42.6304ZM39.3046 41.5483C39.7687 41.777 40.3366 41.584 40.5675 41.1176C40.7962 40.6513 40.6032 40.0846 40.1358 39.8548C39.9082 39.7421 39.6538 39.7253 39.4151 39.8079C39.1763 39.8893 38.9833 40.0589 38.8718 40.2854C38.6442 40.7517 38.8372 41.3184 39.3046 41.5483Z" fill="#E1BB26"/>
</svg>
