<svg width="62" height="62" viewBox="0 0 62 62" fill="none" xmlns="http://www.w3.org/2000/svg">
<path d="M30.9993 62C13.907 62 0 48.0933 0 31C0 13.9067 13.907 0 30.9993 0C48.093 0 62 13.9067 62 31C62 48.0933 48.093 62 30.9993 62ZM30.9993 1.14743C14.5378 1.14743 1.14615 14.5388 1.14615 31C1.14615 47.4612 14.5378 60.8513 30.9993 60.8513C47.4609 60.8513 60.8526 47.4612 60.8526 31C60.8526 14.5388 47.4596 1.14743 30.9993 1.14743Z" fill="#E27B07"/>
<path d="M41.5044 17.512L42.6997 19.3485L46.2105 24.7553L46.6442 24.7774C46.7248 24.7829 46.7954 24.7454 46.8341 24.6747L49.2125 19.9875C49.2401 19.9279 49.2401 19.8628 49.2125 19.8142C49.207 19.7877 49.1904 19.7712 49.1694 19.7491L48.7136 19.045L45.2702 13.7463" fill="#FF9F31"/>
<path d="M46.6598 25.2663C46.6433 25.2663 46.6267 25.2652 46.6102 25.2652L45.938 25.231L41.0962 17.7802L41.914 17.2482L46.4877 24.2829L48.6994 19.9235L44.8619 14.0145L45.6798 13.4837L49.6453 19.5924C49.7402 19.7734 49.7457 19.9975 49.6574 20.1917L47.2691 24.8988C47.141 25.1306 46.9137 25.2663 46.6598 25.2663ZM46.6598 24.2896L46.6687 24.2907C46.6665 24.2896 46.662 24.2896 46.6598 24.2896Z" fill="#E27B07"/>
<path d="M49.1268 18.8045C47.979 17.0376 46.8312 15.2717 45.6833 13.5059C45.3489 12.9916 44.5212 13.4706 44.8578 13.9893C46.0056 15.7551 47.1534 17.5221 48.3013 19.2879C48.6357 19.8011 49.4634 19.3221 49.1268 18.8045Z" fill="#E27B07"/>
<path d="M20.0899 44.4855L18.8946 42.6491L15.3827 37.2423L14.949 37.2202C14.8673 37.2147 14.7978 37.2533 14.7591 37.3228L12.3807 42.01C12.3542 42.0696 12.3542 42.1348 12.3807 42.1833C12.3862 42.2098 12.4028 42.2264 12.4249 42.2484L12.8807 42.9537L16.3242 48.2523" fill="#FF9F31"/>
<path d="M15.9159 48.517L11.9427 42.3928C11.8533 42.214 11.8511 41.9966 11.9405 41.8057L14.3266 37.1019C14.4624 36.8514 14.6997 36.7201 14.9855 36.7333L15.6577 36.7675L20.4995 44.2183L19.6817 44.7502L15.108 37.7156L12.8963 42.075L16.7337 47.984L15.9159 48.517ZM14.9259 37.7067C14.9292 37.7078 14.9325 37.7078 14.9359 37.7078L14.9259 37.7067Z" fill="#E27B07"/>
<path d="M12.4691 43.1941C13.6169 44.96 14.7648 46.7258 15.9126 48.4928C16.247 49.0071 17.0748 48.5281 16.7381 48.0094C15.5903 46.2424 14.4425 44.4777 13.2947 42.7107C12.9603 42.1964 12.1325 42.6754 12.4691 43.1941Z" fill="#E27B07"/>
<path d="M28.3254 43.097L27.8916 43.0749L24.3808 37.6681L21.3899 33.0736C21.3524 33.0041 21.3468 32.9224 21.3954 32.8518L24.2672 28.4526C24.3488 28.3279 24.5276 28.3334 24.6027 28.4526L30.3948 37.3657L30.8506 38.0699C30.8727 38.0919 30.8881 38.1085 30.8937 38.135C30.9201 38.1835 30.9201 38.2486 30.8937 38.3082L28.5152 42.9955C28.4777 43.065 28.4071 43.1025 28.3254 43.097Z" fill="#FF9F31"/>
<path d="M28.3422 43.5859C28.3279 43.5859 28.3124 43.5848 28.2981 43.5837L27.6193 43.5495L20.9818 33.3396C20.8317 33.0648 20.8439 32.7922 20.9928 32.5736L23.8591 28.1844C23.9882 27.988 24.2023 27.8721 24.4352 27.8721C24.4374 27.8721 24.4396 27.8721 24.4407 27.8721C24.6747 27.8732 24.8899 27.9935 25.0158 28.191L31.3343 37.9242C31.4237 38.103 31.4259 38.3204 31.3365 38.5124L28.9515 43.2162C28.8235 43.4502 28.5961 43.5859 28.3422 43.5859ZM28.1657 42.6014H28.169L30.3807 38.2409L24.4341 29.0894L21.9012 32.9699L28.1657 42.6014ZM21.8096 33.1089L21.8041 33.1178C21.8063 33.1144 21.8085 33.1111 21.8096 33.1089ZM24.1946 28.7175C24.1957 28.7186 24.1968 28.7208 24.1968 28.723L24.1946 28.7175Z" fill="#E27B07"/>
<path d="M28.3988 43.1081L30.7772 38.4198C30.8423 38.2907 30.754 38.1372 30.6094 38.1295L19.992 37.5556L14.8864 37.2797C14.8069 37.2753 14.733 37.3183 14.6966 37.389L12.3182 42.0773C12.253 42.2064 12.3413 42.3598 12.4859 42.3686L15.0409 42.5066L28.2078 43.2185C28.2884 43.2218 28.3634 43.1787 28.3988 43.1081Z" fill="#FF9F31"/>
<path d="M28.2219 43.7052C28.2076 43.7052 28.1943 43.7052 28.18 43.7041L12.4603 42.8554C12.2274 42.8422 12.0177 42.7141 11.9018 42.5099C11.7848 42.308 11.7793 42.063 11.8842 41.8544L14.2615 37.1672C14.3818 36.9277 14.6169 36.7732 14.9093 36.7919L30.6368 37.6417C30.8685 37.6539 31.0771 37.7808 31.1941 37.9828C31.3111 38.1847 31.3177 38.4297 31.214 38.6372L28.8356 43.3267C28.7153 43.5606 28.4791 43.7052 28.2219 43.7052ZM28.2319 42.7307H28.2352C28.2341 42.7307 28.233 42.7307 28.2319 42.7307ZM12.9525 41.9051L28.0475 42.7196L30.1412 38.5931L15.0473 37.7775L12.9525 41.9051ZM15.1334 37.6075L15.1312 37.6097C15.1323 37.6097 15.1323 37.6086 15.1334 37.6075Z" fill="#E27B07"/>
<path d="M28.3258 43.0969L27.8921 43.0748L15.159 42.3927L12.6017 42.2515C12.4605 42.2404 12.3689 42.0936 12.434 41.9645L14.8179 37.2718C14.8444 37.2022 14.9206 37.1581 15.0022 37.1636L20.1112 37.4395L24.3802 37.6669L30.7252 38.009C30.7738 38.0145 30.8169 38.0355 30.85 38.0686C30.872 38.0907 30.8875 38.1072 30.893 38.1337C30.9195 38.1823 30.9195 38.2474 30.893 38.307L28.5146 42.9942C28.4782 43.0649 28.4075 43.1024 28.3258 43.0969Z" fill="#FF9F31"/>
<path d="M28.3423 43.5859C28.3279 43.5859 28.3125 43.5848 28.297 43.5836L12.5751 42.7383C12.3334 42.7195 12.127 42.5893 12.0133 42.3873C11.9008 42.1886 11.8963 41.9491 11.999 41.7439L14.384 37.0511C14.4701 36.8227 14.7471 36.6659 15.0363 36.6781L30.7527 37.5235C30.9392 37.5444 31.086 37.6151 31.1953 37.7244L31.3332 37.9241C31.4226 38.1029 31.4248 38.3203 31.3354 38.5124L28.9504 43.2161C28.8235 43.4501 28.5961 43.5859 28.3423 43.5859ZM13.0707 41.788L28.169 42.6003L30.2627 38.4715L15.1643 37.6614L13.0707 41.788ZM14.9756 37.6515C14.9778 37.6515 14.9811 37.6526 14.9855 37.6526L14.9756 37.6515ZM15.2725 37.4506L15.2427 37.5091C15.2548 37.4904 15.2637 37.4705 15.2725 37.4506Z" fill="#E27B07"/>
<path d="M37.4563 33.9663L37.0225 33.9442L33.5117 28.5374L30.5207 23.9429C30.4832 23.8723 30.4777 23.7906 30.5263 23.72L33.398 19.3208C33.4797 19.1961 33.6574 19.2016 33.7335 19.3208L39.5257 28.2339L39.9804 28.938C40.0024 28.9601 40.019 28.9756 40.0245 29.0031C40.051 29.0517 40.051 29.1168 40.0245 29.1764L37.6461 33.8637C37.6086 33.9332 37.5379 33.9718 37.4563 33.9663Z" fill="#FF9F31"/>
<path d="M37.4694 34.454C37.4573 34.454 37.4451 34.454 37.4319 34.4529L36.7498 34.4187L30.1123 24.2088C29.9633 23.9306 29.9765 23.6602 30.1244 23.4439L32.9896 19.0547C33.1187 18.8582 33.3339 18.7424 33.5657 18.7424C33.8372 18.7103 34.0182 18.8604 34.1451 19.0591L40.4593 28.7823C40.552 28.9622 40.5564 29.1829 40.4703 29.3761L38.0809 34.0865C37.9517 34.3205 37.7233 34.454 37.4694 34.454ZM37.2961 33.4695H37.2984L39.5112 29.109L33.5646 19.9564L31.0317 23.8379L37.2961 33.4695ZM30.9412 23.9781L30.9356 23.988C30.9379 23.9847 30.939 23.9814 30.9412 23.9781ZM33.3262 19.5866C33.3262 19.5878 33.3262 19.5889 33.3273 19.59L33.3262 19.5866Z" fill="#E27B07"/>
<path d="M46.7762 24.7309L49.1546 20.0425C49.2197 19.9134 49.1314 19.76 48.9869 19.7523L38.3695 19.1784L33.2639 18.9025C33.1844 18.8981 33.1104 18.9411 33.074 19.0117L30.6956 23.7001C30.6305 23.8292 30.7188 23.9826 30.8634 23.9914L33.4195 24.1294L46.5864 24.8401C46.6658 24.8446 46.7398 24.8026 46.7762 24.7309Z" fill="#FF9F31"/>
<path d="M46.5961 25.3293C46.5862 25.3293 46.5741 25.3293 46.563 25.3282L30.8367 24.4784C30.6049 24.4662 30.3963 24.3382 30.2782 24.1363C30.1612 23.9343 30.1546 23.6882 30.2606 23.4796L32.6379 18.7913C32.7648 18.5462 33.0264 18.4039 33.2924 18.4171L49.0121 19.2658C49.2439 19.278 49.4536 19.406 49.5705 19.6091C49.6875 19.8121 49.6942 20.0571 49.5882 20.2657L47.2098 24.9552C47.0917 25.1847 46.8533 25.3293 46.5961 25.3293ZM31.33 23.5281L46.4251 24.3437L48.5187 20.2161L33.4226 19.4016L31.33 23.5281ZM48.7185 19.8232C48.7185 19.8243 48.7185 19.8243 48.7185 19.8254V19.8232ZM33.2361 19.3905C33.2383 19.3905 33.2394 19.3905 33.2405 19.3905H33.2361Z" fill="#E27B07"/>
<path d="M37.5301 33.9762L39.9085 29.2878C39.9737 29.1587 39.8854 29.0053 39.7408 28.9976L29.1234 28.4237L24.0178 28.1477C23.9383 28.1433 23.8644 28.1864 23.8279 28.257L21.4495 32.9453C21.3844 33.0745 21.4727 33.2279 21.6173 33.2367L24.1734 33.3746L37.3403 34.0865C37.4197 34.0909 37.4937 34.0479 37.5301 33.9762Z" fill="#FF9F31"/>
<path d="M37.3502 34.5745C37.3392 34.5745 37.3281 34.5745 37.3171 34.5745L21.5908 33.7247C21.359 33.7125 21.1493 33.5845 21.0323 33.3825C20.9153 33.1806 20.9087 32.9344 21.0135 32.7258L23.392 28.0375C23.5167 27.7958 23.7473 27.6336 24.0409 27.6623L39.7672 28.5121C39.999 28.5242 40.2076 28.6523 40.3257 28.8542C40.4427 29.0562 40.4493 29.3023 40.3434 29.5109L37.9638 34.2014C37.8446 34.4299 37.6073 34.5745 37.3502 34.5745ZM22.0841 32.7733L37.1791 33.5889L39.2728 29.4612L24.1778 28.6456L22.0841 32.7733Z" fill="#E27B07"/>
<path d="M37.4561 33.9666L37.0223 33.9445L24.2892 33.2625L21.732 33.1212C21.5918 33.1101 21.4991 32.9645 21.5642 32.8342L23.9482 28.1426C23.9746 28.072 24.0508 28.0278 24.1325 28.0344L29.2414 28.3104L33.5115 28.5388L39.8566 28.8798C39.9052 28.8853 39.9482 28.9063 39.9813 28.9394C40.0034 28.9615 40.0199 28.977 40.0255 29.0045C40.0519 29.0531 40.0519 29.1182 40.0255 29.1778L37.647 33.865C37.6084 33.9335 37.5378 33.9721 37.4561 33.9666Z" fill="#FF9F31"/>
<path d="M37.4695 34.4543C37.4562 34.4543 37.443 34.4543 37.4297 34.4532L21.7067 33.6067C21.465 33.5891 21.2586 33.4588 21.1449 33.258C21.0313 33.0593 21.0257 32.8187 21.1273 32.6145L23.5145 27.9196C23.594 27.6989 23.8699 27.5278 24.1668 27.5454L39.8821 28.3909C40.0675 28.4118 40.2088 28.4791 40.3214 28.5884L40.4593 28.7826C40.5509 28.9614 40.5553 29.1811 40.4693 29.3742L38.0798 34.0846C37.9518 34.3208 37.7233 34.4543 37.4695 34.4543ZM22.2012 32.6576L37.2995 33.4699L39.3943 29.3411L24.296 28.5299L22.2012 32.6576ZM24.1072 28.52C24.1094 28.52 24.1138 28.5211 24.116 28.5211L24.1072 28.52ZM24.4063 28.3147L24.3732 28.3809C24.3865 28.3599 24.3964 28.339 24.4063 28.3147Z" fill="#E27B07"/>
<path d="M41.0922 17.7536C41.4906 18.3662 41.889 18.9776 42.2874 19.5901C42.6219 20.1033 43.4507 19.6254 43.113 19.1078C42.7146 18.4953 42.3161 17.8838 41.9177 17.2713C41.5833 16.757 40.7555 17.236 41.0922 17.7536Z" fill="#E27B07"/>
<path d="M20.5036 44.2439C20.1052 43.6314 19.7068 43.02 19.3083 42.4074C18.9739 41.8942 18.1462 42.3732 18.4828 42.8908C18.8812 43.5034 19.2796 44.1148 19.6781 44.7273C20.0125 45.2394 20.8402 44.7615 20.5036 44.2439Z" fill="#E27B07"/>
</svg>
