<svg width="62" height="62" viewBox="0 0 62 62" fill="none" xmlns="http://www.w3.org/2000/svg">
<path d="M30.9993 62C13.907 62 0 48.0933 0 31C0 13.9067 13.907 0 30.9993 0C48.093 0 62 13.9067 62 31C62 48.0933 48.093 62 30.9993 62ZM30.9993 1.14743C14.5378 1.14743 1.14615 14.5388 1.14615 31C1.14615 47.4612 14.5378 60.8513 30.9993 60.8513C47.4609 60.8513 60.8526 47.4612 60.8526 31C60.8526 14.5388 47.4596 1.14743 30.9993 1.14743Z" fill="#4FAB1A"/>
<path d="M23.9165 13.4564V44.2797C23.9165 45.4964 24.233 46.637 24.7826 47.6275C25.9431 49.7196 28.154 51.1356 30.6942 51.1356C33.2344 51.1356 35.4452 49.7196 36.6058 47.6275C37.1554 46.6368 37.4719 45.4964 37.4719 44.2797V13.4564H23.9165Z" fill="#9ADE72"/>
<path d="M30.6936 51.6657C28.0575 51.6657 25.6179 50.2179 24.3248 47.8867C23.7147 46.7869 23.3921 45.5391 23.3921 44.2798V12.9262H37.9961V44.2798C37.9961 45.537 37.6736 46.7849 37.0634 47.8867C35.7695 50.2179 33.3288 51.6657 30.6936 51.6657ZM24.4405 13.9867V44.2798C24.4405 45.3579 24.717 46.4255 25.24 47.3681C26.3468 49.3647 28.4362 50.6053 30.6936 50.6053C32.9501 50.6053 35.0407 49.3647 36.1493 47.3681C36.6715 46.4245 36.9479 45.3559 36.9479 44.2798V13.9867H24.4405Z" fill="#4AA713"/>
<path d="M23.853 21.9653C28.3715 21.9653 32.8901 21.9653 37.4084 21.9653C38.0493 21.9653 38.0503 20.9579 37.4084 20.9579C32.8901 20.9579 28.3715 20.9579 23.853 20.9579C23.2122 20.9577 23.2113 21.9653 23.853 21.9653Z" fill="#4AA713"/>
<path d="M39.1318 11.5065C38.9069 11.1293 38.5157 10.8629 38.051 10.8629H23.2107C22.7457 10.8629 22.3544 11.1293 22.1299 11.5065C22.0136 11.7015 21.9287 11.9167 21.9287 12.1597C21.9287 12.8727 22.5055 13.4563 23.2107 13.4563H38.051C38.7559 13.4563 39.3329 12.8727 39.3329 12.1597C39.3328 11.9167 39.248 11.7015 39.1318 11.5065Z" fill="#9ADE72"/>
<path d="M38.0512 13.9866H23.2108C22.2144 13.9866 21.4048 13.1675 21.4048 12.1598C21.4048 11.8481 21.4949 11.5457 21.6802 11.233C22.0169 10.6696 22.5894 10.3331 23.2108 10.3331H38.0512C38.6727 10.3331 39.245 10.6696 39.5806 11.2319L39.5818 11.233C39.7671 11.5457 39.8572 11.8481 39.8572 12.1598C39.8572 13.1675 39.0472 13.9866 38.0512 13.9866ZM23.2108 11.3935C22.9599 11.3935 22.7233 11.5385 22.578 11.7808C22.4931 11.9237 22.4531 12.0449 22.4531 12.1598C22.4531 12.5824 22.7929 12.9261 23.2106 12.9261H38.0511C38.4689 12.9261 38.8086 12.5824 38.8086 12.1598C38.8086 12.0448 38.7688 11.9248 38.6837 11.7808C38.5384 11.5385 38.3018 11.3935 38.0509 11.3935H23.2108Z" fill="#4AA713"/>
<path d="M30.6658 42.2064C30.8694 41.894 34.0979 36.8686 34.0815 32.0965C34.0774 30.9245 33.9664 29.5133 33.3618 28.5625C32.7981 27.6762 31.9492 27.0671 31.0427 26.9274C30.007 26.7676 28.9162 27.2068 28.178 28.1232C27.3658 29.1313 27.1851 30.6566 27.1803 32.0202C27.1801 32.0539 27.1801 32.0876 27.1803 32.1211C27.1967 36.893 30.46 41.8955 30.6658 42.2064Z" fill="#9ADE72"/>
<path d="M30.67 43.1643L30.2308 42.5017C29.8663 41.9517 26.6732 36.9912 26.6558 32.1229C26.6629 30.0952 27.0284 28.7116 27.7717 27.789C28.6121 26.7451 29.8949 26.2096 31.1213 26.4033C32.1717 26.5649 33.1484 27.2473 33.8036 28.2757C34.5161 29.3973 34.602 30.9931 34.6052 32.0961C34.6225 36.954 31.4632 41.9456 31.104 42.4985L30.67 43.1643ZM30.6248 27.4255C29.8703 27.4255 29.1128 27.8025 28.5846 28.4579C27.9978 29.1859 27.7102 30.352 27.7042 32.0224C27.7175 35.7608 29.7434 39.634 30.6627 41.1988C31.5699 39.6288 33.5703 35.7536 33.557 32.0991C33.5529 30.5788 33.345 29.5164 32.9212 28.8494C32.4298 28.0768 31.7163 27.5673 30.9638 27.4513C30.8512 27.4337 30.7385 27.4255 30.6248 27.4255Z" fill="#4AA713"/>
<path d="M30.1333 34.9588C30.1333 38.1204 30.1333 41.2819 30.1333 44.4433C30.1333 45.0915 31.1292 45.0926 31.1292 44.4433C31.1292 41.2818 31.1292 38.1204 31.1292 34.9588C31.1292 34.3107 30.1333 34.3097 30.1333 34.9588Z" fill="#4AA713"/>
</svg>
