<svg width="63" height="63" viewBox="0 0 63 63" fill="none" xmlns="http://www.w3.org/2000/svg">
<path d="M31.9198 62.6375C14.8274 62.6375 0.92041 48.7308 0.92041 31.6375C0.92041 14.5442 14.8274 0.637497 31.9198 0.637497C49.0134 0.637497 62.9204 14.5442 62.9204 31.6375C62.9204 48.7308 49.0134 62.6375 31.9198 62.6375ZM31.9198 1.78493C15.4582 1.78493 2.06656 15.1763 2.06656 31.6375C2.06656 48.0987 15.4582 61.4888 31.9198 61.4888C48.3813 61.4888 61.773 48.0987 61.773 31.6375C61.773 15.1763 48.38 1.78493 31.9198 1.78493Z" fill="#1BBEDE"/>
<path d="M33.488 35.4022C33.4313 32.9428 33.9605 30.4721 35.019 28.2542L35.8412 28.6482C34.8446 30.7352 34.3463 33.0646 34.4 35.3805L33.488 35.4022Z" fill="#1BBEDE"/>
<path d="M29.3717 48.0797C31.0432 48.6448 33.2485 46.5885 34.2973 43.4868C35.346 40.385 34.8412 37.4124 33.1697 36.8472C31.4981 36.282 29.2929 38.3384 28.2441 41.4401C27.1953 44.5419 27.7001 47.5145 29.3717 48.0797Z" fill="#50DAF5"/>
<path d="M29.9449 48.6337C29.6952 48.6337 29.4517 48.5945 29.2176 48.515C28.2427 48.1859 27.5721 47.2173 27.3297 45.7905C27.1048 44.4639 27.2729 42.868 27.8032 41.2979C28.9504 37.9059 31.3634 35.7643 33.3069 36.4194C35.2454 37.0765 35.8675 40.2456 34.7213 43.6365C34.1911 45.2066 33.3554 46.5787 32.3713 47.4958C31.5676 48.2437 30.7289 48.6337 29.9449 48.6337ZM32.5755 37.2117C31.22 37.2117 29.5219 39.0624 28.6667 41.5898C28.1828 43.0207 28.0271 44.4567 28.2282 45.6379C28.4129 46.719 28.8668 47.4339 29.5095 47.6516C30.1532 47.8692 30.9476 47.5773 31.7492 46.8283C32.625 46.0113 33.374 44.7744 33.8578 43.3436C34.8069 40.5334 34.4211 37.7584 33.015 37.2828C32.8737 37.2344 32.7272 37.2117 32.5755 37.2117Z" fill="#1BBEDE"/>
<path d="M34.8402 39.2821C34.8309 39.279 34.8309 39.2481 34.8247 39.2347C34.8185 39.2223 34.8185 39.2223 34.8093 39.2182C34.6122 38.9314 33.6022 38.4641 32.7181 38.1535C31.8371 37.8667 30.7405 37.6223 30.4186 37.7347C30.4093 37.7316 30.4093 37.7316 30.397 37.7378C30.3753 37.7409 30.3619 37.778 30.3464 37.7625C30.3309 37.746 30.3681 37.7275 30.397 37.6749C30.5837 37.3695 31.181 36.3513 31.4564 35.9387C32.0909 34.9958 32.9317 34.5006 33.8632 34.7637C34.7731 35.1237 35.1404 36.0274 35.0733 37.1611C35.0424 37.6553 34.899 38.8272 34.8536 39.18C34.8536 39.245 34.8722 39.2821 34.8402 39.2821Z" fill="#50DAF5"/>
<path d="M34.8409 39.7391L34.7202 39.7226L34.4448 39.6473L34.4035 39.4482C34.225 39.2924 33.5225 38.919 32.5662 38.5847C31.6336 38.2814 30.8867 38.1514 30.6102 38.1628L30.5617 38.2123L30.3492 38.2236L30.1552 38.2226L29.7354 37.7811L30.0129 37.4324L30.2439 37.0466C30.506 36.6071 30.8763 35.9881 31.0796 35.6869C31.8626 34.5222 32.9262 34.0312 33.9888 34.3273C35.0844 34.7585 35.6157 35.7694 35.529 37.191C35.498 37.6944 35.3547 38.8715 35.3062 39.2418C35.3278 39.344 35.2886 39.4781 35.1948 39.5833L35.0596 39.7339L34.8409 39.7391ZM31.1549 37.2962C31.8079 37.3922 32.56 37.6232 32.8571 37.7212C33.0778 37.7986 33.8712 38.0854 34.486 38.4258C34.5407 37.9554 34.5985 37.42 34.617 37.1353C34.6593 36.4307 34.5335 35.5219 33.6948 35.1897C32.8746 34.9586 32.2278 35.6085 31.8337 36.1955C31.6707 36.439 31.3911 36.9011 31.1549 37.2962ZM30.7257 37.9967L30.7082 38.0194C30.7154 38.0132 30.7206 38.0049 30.7257 37.9967Z" fill="#1BBEDE"/>
<path d="M41.5774 46.0585C43.2826 45.605 43.9828 42.6722 43.1413 39.5079C42.2998 36.3436 40.2352 34.1461 38.53 34.5995C36.8247 35.053 36.1246 37.9858 36.9661 41.1501C37.8076 44.3144 39.8721 46.5119 41.5774 46.0585Z" fill="#50DAF5"/>
<path d="M41.1112 46.5827C39.2853 46.5827 37.3489 44.404 36.5164 41.2751C36.0903 39.673 36.0284 38.0699 36.341 36.7608C36.6773 35.3516 37.4108 34.4314 38.4063 34.1663C40.3757 33.6412 42.6535 35.9386 43.5748 39.3976C44.495 42.8576 43.6656 45.9803 41.6869 46.5074C41.4971 46.5569 41.3042 46.5827 41.1112 46.5827ZM38.9871 35.0039C38.8695 35.0039 38.7529 35.0184 38.6405 35.0483C37.9844 35.2216 37.483 35.9056 37.2282 36.9722C36.9496 38.1369 37.0105 39.5812 37.3984 41.0399C38.1597 43.9057 40.0074 46.0102 41.4527 45.6254C42.8867 45.2437 43.4551 42.4986 42.6927 39.6317C41.9912 36.9929 40.3602 35.0039 38.9871 35.0039Z" fill="#1BBEDE"/>
<path d="M41.2658 35.7065C41.2566 35.7085 41.239 35.6828 41.2266 35.6755C41.2143 35.6683 41.2143 35.6683 41.205 35.6714C40.8821 35.5404 39.7813 35.7086 38.8735 35.9407C37.9801 36.1883 36.932 36.5906 36.7256 36.8619C36.7163 36.865 36.7163 36.865 36.7091 36.8774C36.6926 36.8929 36.7029 36.931 36.6802 36.9259C36.6586 36.9217 36.6802 36.8856 36.674 36.8248C36.6617 36.4668 36.5956 35.2887 36.5977 34.7925C36.6049 33.6556 37.032 32.7788 37.9533 32.4827C38.9106 32.2805 39.7163 32.8293 40.2868 33.8114C40.5344 34.2406 41.0626 35.2959 41.2204 35.6157C41.2555 35.6663 41.2916 35.6879 41.2658 35.7065Z" fill="#50DAF5"/>
<path d="M36.7854 37.4076L36.1778 37.289L36.2191 36.8351L36.1974 36.3657C36.1737 35.8561 36.1396 35.1463 36.1417 34.7894C36.151 33.3864 36.7596 32.3868 37.8129 32.0484C38.9653 31.8029 39.966 32.3527 40.6809 33.5824C40.9357 34.0239 41.4649 35.0803 41.6289 35.4145C41.7043 35.4898 41.7455 35.625 41.7228 35.7663L41.6908 35.9695L41.3937 36.1418L41.1317 36.2213L40.9935 36.0861C40.7665 36.05 39.9701 36.1305 38.9849 36.3812C37.9914 36.6566 37.2528 36.9929 37.0939 37.1322C37.064 37.191 37.0258 37.2343 36.9876 37.2663L36.9856 37.2694C36.9701 37.2817 36.9557 37.2921 36.9422 37.3014L36.7854 37.4076ZM37.1269 36.9073L37.1248 36.9413C37.1259 36.93 37.1269 36.9176 37.1269 36.9073ZM38.338 32.8964C38.2442 32.8964 38.1482 32.9057 38.0471 32.9263C37.2414 33.1883 37.0578 34.0868 37.0537 34.7935C37.0526 35.0896 37.0753 35.6312 37.097 36.0902C37.7294 35.7931 38.534 35.561 38.7517 35.5012C38.9776 35.4434 39.7968 35.2433 40.4972 35.1865C40.2827 34.7656 40.0361 34.288 39.8917 34.0394C39.5781 33.4978 39.0653 32.8964 38.338 32.8964Z" fill="#1BBEDE"/>
<path d="M37.696 27.4288C37.1131 27.8466 36.978 28.6503 36.9646 29.3672C36.9419 30.5484 37.1441 31.7998 37.9064 32.7024" fill="#50DAF5"/>
<path d="M37.5578 32.9975C36.8305 32.1382 36.4787 30.9126 36.5086 29.359C36.5292 28.2418 36.8315 27.4887 37.4309 27.0595L37.9622 27.8002C37.6135 28.0499 37.4371 28.5657 37.4216 29.3765C37.3958 30.7032 37.6764 31.7235 38.2552 32.4084L37.5578 32.9975Z" fill="#1BBEDE"/>
<path d="M28.1921 36.0397L27.4297 35.5394C29.7488 31.9999 33.374 28.9804 37.9142 26.8058C42.3502 24.6817 47.2185 23.5582 50.9633 22.8165L51.1418 23.7099C47.4475 24.4423 42.6525 25.5482 38.3083 27.628C33.9176 29.7304 30.4194 32.6385 28.1921 36.0397Z" fill="#1BBEDE"/>
<path d="M27.8102 49.1897C29.5747 49.1897 31.0052 46.5358 31.0052 43.262C31.0052 39.9883 29.5747 37.3344 27.8102 37.3344C26.0457 37.3344 24.6152 39.9883 24.6152 43.262C24.6152 46.5358 26.0457 49.1897 27.8102 49.1897Z" fill="#50DAF5"/>
<path d="M27.8111 49.6457C25.7633 49.6457 24.1602 46.8407 24.1602 43.262C24.1602 39.6813 25.7633 36.8784 27.8111 36.8784C29.8589 36.8784 31.4631 39.6824 31.4631 43.262C31.4621 46.8417 29.8579 49.6457 27.8111 49.6457ZM27.8111 37.7893C26.3266 37.7893 25.0721 40.2962 25.0721 43.262C25.0721 46.2279 26.3266 48.7347 27.8111 48.7347C29.2956 48.7347 30.5511 46.2279 30.5511 43.262C30.5511 40.2962 29.2956 37.7893 27.8111 37.7893Z" fill="#1BBEDE"/>
<path d="M30.1802 39.0995C30.1699 39.0995 30.1596 39.0696 30.1503 39.0593C30.14 39.05 30.14 39.05 30.1297 39.05C29.8501 38.8406 28.7442 38.7209 27.8075 38.7106C26.8811 38.7209 25.7649 38.8406 25.4946 39.05C25.4853 39.05 25.4853 39.05 25.475 39.0593C25.4543 39.0696 25.4543 39.1098 25.4347 39.0995C25.4151 39.0892 25.445 39.0593 25.4554 38.9994C25.5358 38.6508 25.7741 37.4943 25.9041 37.0157C26.2033 35.9191 26.8408 35.1825 27.8085 35.132C28.7855 35.1825 29.423 35.9201 29.7222 37.0157C29.8512 37.4943 30.0905 38.6508 30.1606 38.9994C30.1802 39.0593 30.2102 39.0892 30.1802 39.0995Z" fill="#50DAF5"/>
<path d="M25.4098 39.5926L24.8579 39.3192L25.0127 38.8931L25.1168 38.4114C25.2241 37.9141 25.3717 37.2364 25.4635 36.8959C25.839 35.5218 26.6622 34.7337 27.7847 34.6759C28.9597 34.7337 29.786 35.5218 30.1615 36.8949C30.2998 37.4087 30.5484 38.6146 30.6072 38.9096C30.6185 38.9096 30.6949 39.0747 30.6103 39.2707L30.5288 39.4585L30.1801 39.5544H29.9108L29.818 39.3955C29.5972 39.3037 28.8132 39.1779 27.8022 39.1665C26.7726 39.1779 25.9741 39.312 25.7823 39.4048C25.7379 39.4543 25.6894 39.4863 25.644 39.509L25.643 39.5111L25.6409 39.51C25.6223 39.5193 25.6048 39.5266 25.5883 39.5317L25.4098 39.5926ZM25.872 39.1954L25.8617 39.2274C25.8648 39.2171 25.8689 39.2067 25.872 39.1954ZM27.8032 38.2546C28.0374 38.2577 28.8802 38.2742 29.5714 38.4C29.4703 37.9286 29.3548 37.4076 29.2815 37.1342C29.0959 36.4554 28.6853 35.6332 27.7847 35.5868C26.9387 35.6332 26.5302 36.4554 26.3445 37.1363C26.2671 37.42 26.1505 37.9502 26.0536 38.399C26.7406 38.2742 27.5773 38.2577 27.8032 38.2546Z" fill="#1BBEDE"/>
<path d="M38.3298 27.5908C42.4306 25.6916 46.7531 24.5713 51.1675 23.68C51.7132 23.5706 51.4821 22.735 50.9374 22.8444C46.4477 23.7512 42.0592 24.9138 37.8924 26.8419C37.3869 27.076 37.8264 27.824 38.3298 27.5908Z" fill="#1BBEDE"/>
<path d="M31.2453 21.8819C35.475 23.6387 40.1782 24.4475 44.2459 24.3939C44.4894 24.3908 44.771 24.3598 44.7916 24.1886C44.8051 24.0772 44.6978 23.9482 44.5936 23.8306C41.8546 20.7729 37.9148 18.0443 33.5871 16.2452C33.5489 16.2297 33.5128 16.2184 33.4757 16.2029C33.4385 16.1864 33.4045 16.1699 33.3663 16.1544C29.1366 14.3975 24.4334 13.5888 20.3657 13.6424C20.1222 13.6455 19.8416 13.6765 19.821 13.8477C19.8076 13.9591 19.9148 14.0881 20.019 14.2057C22.758 17.2634 26.6968 19.992 31.0255 21.7901C31.0627 21.8066 31.0998 21.8179 31.1369 21.8334C31.1731 21.8499 31.2081 21.8674 31.2453 21.8819Z" fill="#50DAF5"/>
<path d="M43.8468 24.8519C39.5614 24.8519 35.0418 23.9523 31.0721 22.3038L31.0029 22.2729L31.0824 21.8128L30.8554 22.2141C26.4638 20.3891 22.4951 17.6543 19.6797 14.511C19.558 14.3749 19.33 14.1221 19.3692 13.7951C19.4167 13.3989 19.7509 13.1947 20.3616 13.1875C24.7863 13.1297 29.4483 14.0324 33.5418 15.7335L33.6563 15.784L33.5882 16.2472L33.7626 15.8253C38.1522 17.6502 42.1198 20.384 44.9341 23.5283C45.0569 23.6635 45.2849 23.9172 45.2457 24.2432C45.1982 24.6394 44.864 24.8436 44.2532 24.8509C44.116 24.8509 43.9809 24.8519 43.8468 24.8519ZM31.4208 21.461C35.2966 23.0724 39.8832 24.0101 44.0779 23.9389C41.3636 20.9772 37.5868 18.4012 33.4139 16.6661L33.2963 16.6207L33.3674 16.1533L33.1931 16.5753C29.3193 14.9639 24.7368 14.0654 20.536 14.0973C23.2523 17.0601 27.0281 19.6361 31.201 21.3692L31.3176 21.4146L31.2474 21.8829L31.4208 21.461Z" fill="#1BBEDE"/>
<path d="M29.1894 28.4697C34.5456 28.3965 39.971 27.0853 44.3141 25.1418C44.5741 25.0252 44.8619 24.8612 44.8042 24.6672C44.767 24.5414 44.5906 24.4516 44.4255 24.3753C40.0669 22.3616 34.5724 21.2567 29.0903 21.332C29.0429 21.3331 28.9975 21.3372 28.9511 21.3372C28.9036 21.3382 28.8582 21.3362 28.8108 21.3362C23.4545 21.4104 18.0292 22.7216 13.686 24.6652C13.426 24.7817 13.1382 24.9447 13.196 25.1397C13.2331 25.2656 13.4085 25.3543 13.5746 25.4306C17.9332 27.4453 23.4277 28.5502 28.9098 28.4739C28.9572 28.4739 29.0016 28.4697 29.0491 28.4687C29.0965 28.4687 29.1409 28.4708 29.1894 28.4697Z" fill="#50DAF5"/>
<path d="M28.4271 28.9309C22.9945 28.9309 17.7002 27.8394 13.3828 25.8443C13.1858 25.7525 12.8567 25.5998 12.7587 25.2666C12.64 24.8643 12.8897 24.5218 13.4994 24.2484C18.1933 22.148 23.628 20.9513 28.8047 20.8791L28.9512 21.3372L28.9429 20.8812L29.0853 20.8761C34.6293 20.809 40.1465 21.8953 44.6176 23.9606C44.8146 24.0524 45.1427 24.204 45.2417 24.5383C45.3624 24.9396 45.1128 25.2831 44.502 25.5565C39.8081 27.6579 34.3745 28.8535 29.1977 28.9257L29.0987 28.9247L29.0513 28.4687L29.0028 28.9257C28.8099 28.9288 28.618 28.9309 28.4271 28.9309ZM29.0492 28.0127L29.1885 28.4708L29.1823 28.0148C34.1578 27.9467 39.5976 26.75 44.11 24.7332C39.7823 22.7587 34.4529 21.7168 29.0956 21.789L28.9491 21.7942L28.8099 21.3372L28.816 21.7921C23.8405 21.8602 18.3996 23.0579 13.8883 25.0747C18.2129 27.0482 23.5423 28.0911 28.9027 28.0189L29.0492 28.0127Z" fill="#1BBEDE"/>
<path d="M13.5737 25.4306C13.5737 25.4306 30.3543 22.6793 43.7717 24.9777L13.5737 25.4306Z" fill="#50DAF5"/>
<path d="M13.6481 25.8794L13.4995 24.9808C13.6687 24.953 30.5091 22.245 43.8481 24.5279L43.6954 25.4275C30.508 23.1672 13.8152 25.8536 13.6481 25.8794Z" fill="#1BBEDE"/>
</svg>
