<svg width="36" height="10" viewBox="0 0 36 10" fill="none" xmlns="http://www.w3.org/2000/svg">
<path opacity="0.75" d="M2.752 8.608H6.528C6.67733 8.608 6.752 8.68267 6.752 8.832V9.76C6.752 9.92 6.67733 10 6.528 10H1.216C1.056 10 0.976 9.92533 0.976 9.776V0.351999C0.976 0.202666 1.056 0.127999 1.216 0.127999H6.448C6.608 0.127999 6.688 0.202666 6.688 0.351999V1.264C6.688 1.424 6.61333 1.504 6.464 1.504H2.736C2.608 1.504 2.544 1.55733 2.544 1.664V3.984C2.544 4.12267 2.608 4.192 2.736 4.192H5.808C5.95733 4.192 6.032 4.272 6.032 4.432V5.344C6.032 5.49333 5.96267 5.568 5.824 5.568H2.736C2.608 5.568 2.544 5.632 2.544 5.76V8.416C2.544 8.544 2.61333 8.608 2.752 8.608ZM16.6096 9.76C16.6096 9.92 16.5296 10 16.3696 10H15.3296C15.1803 10 15.1056 9.93067 15.1056 9.792V4.144C15.1056 4.12267 15.095 4.112 15.0736 4.112C15.063 4.10133 15.0523 4.10667 15.0416 4.128L14.3696 5.936L13.0096 9.44C12.935 9.61067 12.823 9.696 12.6736 9.696H11.9856C11.7936 9.696 11.671 9.62133 11.6176 9.472L10.3056 6.048L9.64963 4.176C9.60696 4.13333 9.58563 4.13333 9.58563 4.176V9.776C9.58563 9.92533 9.51096 10 9.36163 10H8.32162C8.16163 10 8.08163 9.92533 8.08163 9.776V0.448C8.08163 0.234666 8.18829 0.127999 8.40163 0.127999H9.20163C9.34029 0.127999 9.43629 0.143999 9.48963 0.176C9.54296 0.197333 9.59629 0.266666 9.64963 0.384C9.75629 0.618666 10.4016 2.32 11.5856 5.488L12.2896 7.408C12.3323 7.49333 12.3803 7.49867 12.4336 7.424C12.583 6.976 12.8176 6.32 13.1376 5.456L15.0576 0.384C15.143 0.213333 15.2923 0.127999 15.5056 0.127999H16.2896C16.503 0.127999 16.6096 0.229333 16.6096 0.431999V9.76ZM22.2219 0.32L24.6379 9.696C24.6912 9.89867 24.6272 10 24.4459 10H23.3099C23.1605 10 23.0699 9.94667 23.0379 9.84L22.5899 8C22.5579 7.904 22.5099 7.856 22.4459 7.856H19.8539C19.7899 7.856 19.7365 7.89867 19.6939 7.984L19.2619 9.84C19.2299 9.94667 19.1445 10 19.0059 10H17.9499C17.7472 10 17.6672 9.904 17.7099 9.712L20.0619 0.335999C20.0939 0.197333 20.1899 0.127999 20.3499 0.127999H21.9499C22.1099 0.127999 22.2005 0.191999 22.2219 0.32ZM22.2059 6.416L21.5979 3.856L21.1819 1.936C21.1712 1.88267 21.1499 1.86133 21.1179 1.872C21.0965 1.88267 21.0859 1.89867 21.0859 1.92L20.6859 3.808L20.0779 6.416C20.0672 6.512 20.0992 6.56 20.1739 6.56H22.1099C22.2059 6.56 22.2379 6.512 22.2059 6.416ZM27.4655 10H26.3455C26.1855 10 26.1055 9.93067 26.1055 9.792V0.335999C26.1055 0.197333 26.1855 0.127999 26.3455 0.127999H27.4655C27.6255 0.127999 27.7055 0.197333 27.7055 0.335999V9.776C27.7055 9.92533 27.6255 10 27.4655 10ZM31.7219 8.608H35.4339C35.5832 8.608 35.6579 8.68267 35.6579 8.832V9.76C35.6579 9.92 35.5885 10 35.4499 10H30.2179C30.0579 10 29.9779 9.92533 29.9779 9.776V0.335999C29.9779 0.197333 30.0525 0.127999 30.2019 0.127999H31.3219C31.4712 0.127999 31.5459 0.191999 31.5459 0.32V8.416C31.5459 8.544 31.6045 8.608 31.7219 8.608Z" fill="white"/>
</svg>
