<svg width="64" height="64" viewBox="0 0 64 64" fill="none" xmlns="http://www.w3.org/2000/svg">
<path d="M31.9986 64C14.3553 64 0 49.6447 0 32C0 14.3553 14.3553 0 31.9986 0C49.6433 0 63.9986 14.3553 63.9986 32C63.9986 49.6447 49.6433 64 31.9986 64ZM31.9986 1.18444C15.0065 1.18444 1.18309 15.0078 1.18309 32C1.18309 48.9922 15.0065 62.8142 31.9986 62.8142C48.9908 62.8142 62.8142 48.9922 62.8142 32C62.8142 15.0078 48.9895 1.18444 31.9986 1.18444Z" fill="#D8AA06"/>
<path fill-rule="evenodd" clip-rule="evenodd" d="M43.5778 16.6859L47.7009 15.7445C47.994 15.678 48.2567 15.9373 48.1958 16.2293L43.5856 38.3692C43.585 38.373 43.583 38.3764 43.5809 38.3799C43.5793 38.3827 43.5776 38.3854 43.5766 38.3884C43.5372 38.5383 43.4225 38.6463 43.2859 38.6836C43.2535 38.847 43.1385 38.9909 42.9679 39.0513L18.3081 47.5726L16.3824 48.2378C15.9991 48.3697 15.6315 48.0044 15.7623 47.6211L18.3081 40.1438L24.6963 21.3761C24.7558 21.2009 24.907 21.0805 25.0808 21.053C25.1344 20.9518 25.23 20.8722 25.3535 20.844L43.5778 16.6859Z" fill="#FFDD00"/>
<path fill-rule="evenodd" clip-rule="evenodd" d="M43.6818 39.0483C43.8508 38.9365 43.9775 38.772 44.0411 38.5856L48.6851 16.3352C48.7483 16.0308 48.6524 15.7185 48.4315 15.4998C48.2105 15.2833 47.8959 15.1909 47.5915 15.2608L25.2442 20.3591C25.0611 20.3996 24.899 20.4941 24.7758 20.6281C24.5251 20.7339 24.3187 20.9405 24.2239 21.216L15.2899 47.4598C15.1692 47.8172 15.2594 48.2062 15.5278 48.4734C15.716 48.6617 15.9641 48.7609 16.22 48.7609C16.3283 48.7609 16.4365 48.744 16.5459 48.7068L43.1313 39.5214C43.3688 39.4385 43.5656 39.2686 43.6818 39.0483ZM43.2961 37.3266L47.3426 17.8856C45.5121 20.6238 42.2264 25.6698 39.6319 29.6691L43.2961 37.3266ZM27.0845 20.9601L45.9254 16.6623L36.4643 23.2205C36.3413 23.1098 36.1905 23.0311 36.0227 22.9928L27.0845 20.9601ZM46.3446 17.5822L36.9608 24.087L39.1266 28.613C41.5847 24.8253 44.5607 20.2571 46.3446 17.5822ZM38.4906 29.5935L36.1308 24.6623L29.7265 29.1017L35.3169 34.4963C35.8667 33.6455 37.0541 31.8087 38.4906 29.5935ZM29.1333 28.3022L35.4996 23.8892L25.7637 21.6812L29.1333 28.3022ZM25.5592 23.4742L28.3129 28.8845L26.0759 30.5244L25.5592 23.4742ZM24.5487 23.3235L25.1415 31.4047L17.4248 44.2792L24.5487 23.3235ZM25.7459 32.2606L16.998 46.9254L31.0814 37.5543L25.7459 32.2606ZM26.4099 31.5142L31.9295 36.99L34.6152 35.203L28.9028 29.6859L26.4099 31.5142ZM31.9918 38.1358C34.9472 38.4016 39.2804 38.8308 41.2667 39.1093L18.9563 46.8189L31.9918 38.1358ZM33.3223 37.2543L35.4554 35.842L40.1806 37.9474C38.7432 37.7684 36.5794 37.5508 33.3223 37.2543ZM42.4507 37.8692L36.1397 35.0622C36.6398 34.2884 37.6968 32.6536 38.996 30.6496L42.4507 37.8692Z" fill="#D8AA06"/>
</svg>
