<svg width="64" height="64" viewBox="0 0 64 64" fill="none" xmlns="http://www.w3.org/2000/svg">
<path d="M31.9986 64C14.3553 64 0 49.6447 0 32C0 14.3553 14.3553 0 31.9986 0C49.6433 0 63.9986 14.3553 63.9986 32C63.9986 49.6447 49.6433 64 31.9986 64ZM31.9986 1.18444C15.0065 1.18444 1.18309 15.0078 1.18309 32C1.18309 48.9922 15.0065 62.8142 31.9986 62.8142C48.9908 62.8142 62.8142 48.9922 62.8142 32C62.8142 15.0078 48.9895 1.18444 31.9986 1.18444Z" fill="#B01E65"/>
<path d="M27.1875 35.3919L26.9961 34.3788C27.1443 34.3508 27.3194 34.338 27.5073 34.3345L27.5283 35.3662C27.4011 35.3686 27.2844 35.3744 27.1875 35.3919Z" fill="#B01E65"/>
<path d="M27.0093 35.455L26.0791 34.9928C26.1491 34.8434 26.2635 34.715 26.4292 34.6018L27.0093 35.455Z" fill="#B01E65"/>
<path d="M29.5728 35.6837C29.3288 35.6207 29.1001 35.5694 28.8806 35.525C28.8795 35.525 28.876 35.5239 28.876 35.5239L29.0849 34.5143C29.323 34.5633 29.5681 34.617 29.8307 34.6847L29.5728 35.6837Z" fill="#B01E65"/>
<path d="M27.0178 35.4516L26.5439 34.5342C26.6852 34.4618 26.8299 34.4105 26.9875 34.3801L27.187 35.392C27.1252 35.4037 27.0727 35.4224 27.0178 35.4516Z" fill="#B01E65"/>
<path d="M28.7185 35.4935C28.5119 35.455 28.3147 35.4211 28.1338 35.4001L28.2528 34.3754C28.4548 34.3999 28.6765 34.4361 28.9076 34.4781L28.7185 35.4935Z" fill="#B01E65"/>
<path d="M28.1146 35.3977C27.9372 35.3779 27.7785 35.3697 27.6279 35.3662L27.6466 34.3345C27.8264 34.3368 28.0178 34.3473 28.2313 34.3718L28.1146 35.3977Z" fill="#B01E65"/>
<path d="M29.5657 55.5178C28.3904 55.5178 27.1965 55.268 26.062 54.7393C24.0475 53.8009 22.5186 52.1354 21.7576 50.0463C20.9966 47.9571 21.0958 45.6952 22.0354 43.6772L26.0783 34.9961L26.0795 34.9938L27.0144 35.4291C27.0109 35.9018 29.0288 37.7459 33.0928 39.639C37.1614 41.5332 39.8738 41.8927 40.2532 41.5612L41.1705 42.0222L41.1694 42.0257L37.1276 50.7057C35.7177 53.7332 32.7053 55.5178 29.5657 55.5178Z" fill="#FF49B0"/>
<path d="M29.5657 55.5178C28.3904 55.5178 27.1965 55.268 26.062 54.7393C24.0475 53.8009 22.5186 52.1354 21.7576 50.0463C20.9966 47.9571 21.0958 45.6952 22.0354 43.6772L26.0783 34.9961L26.0795 34.9938L27.0144 35.4291C27.0109 35.9018 29.0288 37.7459 33.0928 39.639C37.1614 41.5332 39.8738 41.8927 40.2532 41.5612L41.1705 42.0222L41.1694 42.0257L37.1276 50.7057C35.7177 53.7332 32.7053 55.5178 29.5657 55.5178ZM26.5008 36.532L22.9714 44.1114C22.1474 45.8808 22.0611 47.8614 22.7275 49.6915C23.3928 51.5203 24.7326 52.9804 26.4973 53.8021C30.1446 55.5014 34.4957 53.9165 36.1939 50.2692L39.7221 42.6875C39.2506 42.6863 38.6787 42.6233 37.9936 42.4739C36.4821 42.146 34.5867 41.4714 32.6586 40.5727C30.734 39.6751 29.0008 38.6609 27.7765 37.7155C27.221 37.2872 26.7973 36.8939 26.5008 36.532Z" fill="#B01E65"/>
<path d="M40.2173 41.5953C40.2173 41.5941 40.2173 41.5941 40.2173 41.5929C40.2044 41.5357 40.1823 41.482 40.1484 41.426L41.0436 40.9102C41.1265 41.056 41.186 41.2031 41.2222 41.3607V41.3618C41.2222 41.363 41.2222 41.363 41.2222 41.3642L40.2173 41.5953Z" fill="#B01E65"/>
<path d="M40.1285 41.3944C40.0772 41.3116 40.0118 41.2229 39.9336 41.1295L40.7237 40.4642C40.8393 40.602 40.9362 40.7338 41.012 40.8599L40.1285 41.3944Z" fill="#B01E65"/>
<path d="M39.8693 41.0524C39.7677 40.9368 39.651 40.8166 39.5156 40.6906L40.2194 39.9354C40.3805 40.086 40.5217 40.2319 40.6431 40.3708L39.8693 41.0524Z" fill="#B01E65"/>
<path d="M39.662 42.6888C39.2056 42.6888 38.6512 42.6164 37.993 42.4741C36.4815 42.1461 34.5861 41.4715 32.658 40.5728C30.7334 39.6753 29.0002 38.661 27.7759 37.7156C26.3088 36.5812 25.7544 35.6907 26.0789 34.9927C26.1489 34.8433 26.2633 34.7149 26.429 34.6017L26.5236 34.5434C26.6846 34.4605 26.8294 34.4092 26.9858 34.3788L27.0896 34.3695C27.1421 34.3496 27.3172 34.338 27.504 34.3345L27.6347 34.8503L27.644 34.3345C27.8238 34.3368 28.0152 34.3473 28.2287 34.3718C28.4505 34.3987 28.6723 34.436 28.9033 34.478L29.0761 34.5119C29.3189 34.5621 29.564 34.6169 29.8277 34.6834C30.1102 34.7581 30.3751 34.8352 30.647 34.918L30.8606 34.9834C31.1431 35.0721 31.4337 35.1678 31.7348 35.2752L31.3882 36.2462C31.1011 36.1447 30.8233 36.0525 30.5502 35.9661L30.3529 35.9066C30.0892 35.8261 29.8371 35.7537 29.599 35.6895C29.3259 35.6195 29.0959 35.5681 28.8742 35.5226L28.7096 35.4899C28.51 35.4537 28.3128 35.4199 28.1307 35.3989C27.9358 35.3756 27.7759 35.3685 27.6253 35.365C27.3989 35.3674 27.2822 35.3732 27.1842 35.3907C27.1223 35.4024 27.0698 35.4199 27.0149 35.4491C27.0091 35.8996 29.0271 37.7437 33.091 39.6368C37.1596 41.531 39.8721 41.8905 40.2514 41.559C40.2024 41.5345 40.179 41.482 40.1463 41.4248C40.074 41.3093 40.0098 41.2206 39.9304 41.1283C39.7647 40.9358 39.6491 40.8144 39.5138 40.6895C39.3072 40.5039 39.1624 40.3825 39.0084 40.2577L38.8998 40.1713C38.7178 40.0289 38.5205 39.8818 38.3093 39.7336L38.461 39.2119L38.1704 39.6368C37.9731 39.5025 37.7665 39.366 37.5506 39.2283L37.7047 38.7136L37.4293 39.1501C37.1818 38.9937 36.9181 38.8361 36.6473 38.6797L37.1643 37.7868C37.4468 37.9526 37.7222 38.1148 37.979 38.277L38.0688 38.3342C38.3314 38.5011 38.5462 38.6447 38.7528 38.7859L38.9057 38.8921C39.1286 39.0497 39.3422 39.2061 39.5383 39.3601L39.6316 39.436C39.8254 39.5901 39.9841 39.7255 40.1277 39.855L40.2164 39.9332C40.3774 40.0838 40.5186 40.2297 40.64 40.3685L40.7089 40.4491C40.8349 40.5996 40.9318 40.7315 41.0089 40.8587C41.1244 41.0536 41.1839 41.2019 41.2201 41.3594L41.2388 41.4657C41.2644 41.6886 41.2423 41.8648 41.1687 42.0212C40.9645 42.4682 40.4673 42.6888 39.662 42.6888Z" fill="#B01E65"/>
<path d="M41.1702 42.0223L40.2354 41.5846L41.2426 41.4843C41.2484 41.5368 41.2519 41.5858 41.2519 41.6337C41.2531 41.7772 41.2251 41.9056 41.1702 42.0223Z" fill="#B01E65"/>
<path d="M38.1735 39.639C37.9762 39.5048 37.7696 39.3683 37.5537 39.2305L38.1081 38.3599C38.3345 38.5046 38.5504 38.647 38.757 38.7894L38.1735 39.639Z" fill="#B01E65"/>
<path d="M31.3897 36.2462C31.1026 36.1447 30.8249 36.0524 30.5518 35.9661L30.8599 34.9822C31.1447 35.0709 31.4353 35.1666 31.7364 35.274L31.3897 36.2462Z" fill="#B01E65"/>
<path d="M37.4325 39.1523C37.4325 39.1512 37.4325 39.1523 37.4325 39.1523C37.4302 39.1512 37.4302 39.15 37.4302 39.15C37.1804 38.9936 36.919 38.8372 36.6494 38.6808L37.1664 37.788C37.4477 37.9525 37.7232 38.1148 37.9788 38.277H37.9799C37.9799 38.277 37.9799 38.2782 37.9811 38.2782L37.4325 39.1523Z" fill="#B01E65"/>
<path d="M38.9031 40.1726C38.721 40.0302 38.5238 39.8832 38.3125 39.735L38.9054 38.8911C39.1318 39.051 39.3454 39.2074 39.5415 39.3626L38.9031 40.1726Z" fill="#B01E65"/>
<path d="M30.3464 35.9054C30.0896 35.8272 29.8375 35.7549 29.6006 35.6907L29.862 34.694C30.1141 34.7593 30.3779 34.8364 30.6487 34.9192L30.3464 35.9054Z" fill="#B01E65"/>
<path d="M39.44 40.6229C39.3105 40.5051 39.1658 40.3848 39.0117 40.2588L39.6571 39.4558C39.8287 39.5924 39.9874 39.7266 40.131 39.8573C40.1322 39.8585 40.1322 39.8585 40.1333 39.8596L39.44 40.6229Z" fill="#B01E65"/>
<path d="M30.7061 35.476C30.9838 35.5635 31.2686 35.6569 31.5627 35.7619L30.7061 35.476Z" fill="#FF49B0"/>
<path d="M30.5713 35.9626C30.8584 36.0537 31.1444 36.1494 31.428 36.2486C32.0431 36.4645 32.3068 35.4876 31.6964 35.274C31.4116 35.1748 31.1269 35.0791 30.8397 34.9881C30.2188 34.7908 29.9527 35.7666 30.5713 35.9626Z" fill="#B01E65"/>
<path d="M36.9072 38.2349C37.185 38.3959 37.4535 38.5558 37.7079 38.7157L36.9072 38.2349Z" fill="#FF49B0"/>
<path d="M36.6528 38.6715C36.9201 38.8279 37.1873 38.9878 37.4523 39.1512C38.0067 39.4955 38.5144 38.6213 37.9635 38.2782C37.6985 38.1136 37.4324 37.9537 37.1628 37.7973C36.5991 37.4705 36.0902 38.3435 36.6528 38.6715Z" fill="#B01E65"/>
<path d="M40.146 24.0369L39.3418 23.3927C39.4177 23.2958 39.4865 23.2048 39.5344 23.1184L40.4389 23.6121C40.3677 23.744 40.265 23.8899 40.146 24.0369Z" fill="#B01E65"/>
<path d="M40.6234 23.0392L39.5986 22.9365L40.5452 22.5128C40.6035 22.6319 40.6316 22.7626 40.6316 22.9108C40.6316 22.9517 40.6292 22.9948 40.6234 23.0392Z" fill="#B01E65"/>
<path d="M38.401 25.608L37.793 24.7758C37.9972 24.6264 38.1828 24.4817 38.359 24.3381L39.0068 25.1423C38.8189 25.294 38.6216 25.4492 38.401 25.608Z" fill="#B01E65"/>
<path d="M40.4418 23.6075L39.5361 23.1161C39.5641 23.0624 39.5828 23.0111 39.5968 22.9492L40.6052 23.1651C40.5725 23.3227 40.5189 23.4663 40.4418 23.6075Z" fill="#B01E65"/>
<path d="M39.1479 25.0267L38.4873 24.2342C38.6484 24.1 38.7989 23.9681 38.9308 23.842L39.6428 24.5878C39.4957 24.7279 39.3265 24.8761 39.1479 25.0267Z" fill="#B01E65"/>
<path d="M39.6578 24.5727L38.9424 23.8292C39.0684 23.7067 39.177 23.59 39.2738 23.4756L40.0593 24.142C39.9426 24.2797 39.8131 24.4233 39.6578 24.5727Z" fill="#B01E65"/>
<path d="M25.5307 29.7057L21.3932 21.0666C20.4326 19.0591 20.3089 16.7984 21.0489 14.6999C21.7865 12.6025 23.3003 10.9184 25.3077 9.95783C29.4429 7.97604 34.4254 9.73256 36.4095 13.8759L40.5447 22.5103C40.5447 22.5127 40.5447 22.5127 40.5458 22.5138L39.6156 22.9597C39.255 22.6574 36.5496 23.0437 32.502 24.98C28.4532 26.9174 26.4515 28.786 26.4691 29.2879L25.5307 29.7057Z" fill="#FF49B0"/>
<path d="M25.5307 29.7057L21.3932 21.0666C20.4326 19.0591 20.3089 16.7984 21.0489 14.6999C21.7865 12.6025 23.3003 10.9184 25.3077 9.95783C29.4429 7.97604 34.4254 9.73256 36.4095 13.8759L40.5447 22.5103C40.5447 22.5127 40.5447 22.5127 40.5458 22.5138L39.6156 22.9597C39.255 22.6574 36.5496 23.0437 32.502 24.98C28.4532 26.9174 26.4515 28.786 26.4691 29.2879L25.5307 29.7057ZM28.8862 10.1749C27.8334 10.1749 26.7643 10.4048 25.7524 10.8892C23.9936 11.7319 22.6677 13.2071 22.0211 15.0453C21.3734 16.8824 21.4819 18.863 22.3234 20.6231L25.9345 28.1639C26.2263 27.7986 26.6476 27.3995 27.1985 26.9641C28.4135 26.0036 30.1397 24.9695 32.0573 24.0509C33.9725 23.1347 35.8575 22.4403 37.3642 22.096C38.0412 21.9419 38.6084 21.8637 39.0752 21.8637C39.0799 21.8637 39.0857 21.8637 39.0904 21.8637L35.4781 14.3229C34.2258 11.7062 31.6079 10.1749 28.8862 10.1749Z" fill="#B01E65"/>
<path d="M26.468 30.3114C26.3023 30.2834 26.1517 30.2356 26.0082 30.1644C26.0082 30.1632 26.007 30.1632 26.0059 30.1632L26.468 29.24C26.5182 29.2645 26.5754 29.2832 26.6419 29.296C26.6443 29.296 26.6455 29.296 26.6455 29.296L26.468 30.3114Z" fill="#B01E65"/>
<path d="M26.9833 30.3488C26.8176 30.3488 26.6647 30.3395 26.5293 30.3208L26.6752 29.2996C26.7732 29.3136 26.8853 29.3182 27.0078 29.3182L27.0136 30.35C27.0043 30.3488 26.9938 30.3488 26.9833 30.3488Z" fill="#B01E65"/>
<path d="M27.1416 30.3478L27.1055 29.316C27.2595 29.3113 27.4264 29.2962 27.6097 29.2728L27.7486 30.2941C27.5268 30.3244 27.3272 30.3408 27.1416 30.3478Z" fill="#B01E65"/>
<path d="M26.9817 30.3488C26.8183 30.3488 26.6654 30.3394 26.53 30.3208C26.2978 30.2834 26.1483 30.2356 26.0048 30.1644L25.9021 30.1048C25.727 29.994 25.6045 29.8644 25.5298 29.708C25.1971 29.0112 25.7434 28.1149 27.1976 26.9641C28.4126 26.0035 30.1388 24.9695 32.0564 24.0509C33.9717 23.1347 35.8566 22.4403 37.3633 22.096C39.1712 21.6863 40.2123 21.8205 40.5449 22.5161C40.6185 22.6655 40.6441 22.8371 40.622 23.0402L40.6033 23.1627C40.5706 23.3226 40.5169 23.4674 40.4399 23.6074L40.3955 23.6821C40.3243 23.8012 40.2391 23.919 40.1434 24.0381L40.0594 24.1408C39.9404 24.2809 39.8108 24.4232 39.6556 24.5726C39.4922 24.7279 39.3241 24.8761 39.1444 25.0266L39.0043 25.1422C38.8164 25.2928 38.6168 25.448 38.3986 25.6079C38.1628 25.7794 37.9352 25.9347 37.6983 26.0922L37.5174 26.2125C37.2618 26.3794 37.0038 26.5416 36.7307 26.705L36.2009 25.8203C36.4635 25.6627 36.7109 25.5052 36.9502 25.3511L37.1311 25.2309C37.3505 25.085 37.5652 24.9379 37.7648 24.7932C37.9936 24.6275 38.1792 24.4816 38.3566 24.3392L38.8141 24.631L38.4838 24.2353C38.6448 24.1011 38.7954 23.9692 38.9273 23.8432C39.0662 23.7078 39.1747 23.5911 39.2716 23.4779L39.3393 23.395C39.4151 23.2981 39.484 23.2071 39.5319 23.1207L39.547 23.0927C39.5704 23.0472 39.5832 23.0028 39.5949 22.9515C39.2541 22.662 36.5463 23.0472 32.5011 24.9835C28.4523 26.9209 26.4506 28.7895 26.4681 29.2914C26.5207 29.268 26.5755 29.2855 26.6432 29.2984C26.7728 29.3147 26.8755 29.3217 27.0074 29.3194C27.2583 29.3135 27.4252 29.2983 27.6084 29.275L27.7858 29.7687L27.7135 29.2575C27.885 29.233 28.0695 29.2003 28.2632 29.1595L28.5095 29.6345L28.3997 29.1303C28.625 29.0813 28.8631 29.0206 29.1105 28.9517L29.2167 28.9202C29.5039 28.8385 29.7396 28.7661 29.9836 28.6868L30.1178 28.6436C30.399 28.5502 30.6873 28.4475 30.9815 28.3378L31.3444 29.303C31.0386 29.4197 30.7375 29.5259 30.4481 29.6228L30.3302 29.6613C30.0489 29.7535 29.8015 29.8282 29.5599 29.8971L29.3848 29.9473C29.1187 30.0208 28.8631 30.085 28.6192 30.1387V30.1398L28.4768 30.169C28.2597 30.2146 28.0543 30.2519 27.8594 30.2799L27.738 30.2986C27.5256 30.3278 27.326 30.3441 27.1404 30.3511L27.0109 30.3523C27.0015 30.3488 26.991 30.3488 26.9817 30.3488Z" fill="#B01E65"/>
<path d="M25.9024 30.1037C25.7285 29.9929 25.6059 29.8633 25.5312 29.7069L26.4615 29.2599L25.9024 30.1037Z" fill="#B01E65"/>
<path d="M29.561 29.8949L29.2773 28.9028C29.5061 28.8375 29.7419 28.7651 29.9858 28.6846L30.3056 29.6661C30.05 29.7502 29.8026 29.8249 29.561 29.8949Z" fill="#B01E65"/>
<path d="M36.734 26.7051L36.2041 25.8204C36.4667 25.6628 36.7142 25.5053 36.9534 25.3512L37.516 26.216C37.2662 26.3783 37.0071 26.5405 36.734 26.7051Z" fill="#B01E65"/>
<path d="M30.4489 29.6205L30.1221 28.6413C30.3998 28.5491 30.6881 28.4464 30.9822 28.3367L31.3452 29.3019C31.0394 29.4163 30.7383 29.5237 30.4489 29.6205Z" fill="#B01E65"/>
<path d="M28.6198 30.1365L28.4004 29.1293C28.6256 29.0802 28.8637 29.0195 29.1112 28.9507L29.3866 29.9439C29.1193 30.0174 28.8637 30.0828 28.6198 30.1365Z" fill="#B01E65"/>
<path d="M37.7028 26.0923L37.1309 25.2345C37.3538 25.0851 37.5697 24.9381 37.7693 24.7933L38.3774 25.6278C38.1661 25.7796 37.9385 25.9348 37.7028 26.0923Z" fill="#B01E65"/>
<path d="M27.8588 30.2765L27.7129 29.2553C27.8845 29.2308 28.0689 29.1981 28.2626 29.1572L28.4762 30.1668C28.2591 30.2112 28.0537 30.2485 27.8588 30.2765Z" fill="#B01E65"/>
<path d="M37.2344 25.7831C36.9893 25.9418 36.736 26.1017 36.4688 26.2639L37.2344 25.7831Z" fill="#FF49B0"/>
<path d="M36.9786 25.3466C36.7253 25.51 36.4697 25.6699 36.213 25.8274C35.6574 26.1647 36.1651 27.0389 36.7242 26.7005C36.9821 26.5441 37.2366 26.3841 37.4887 26.2208C38.0337 25.8659 37.5272 24.9906 36.9786 25.3466Z" fill="#B01E65"/>
<path d="M31.163 28.8188C30.8631 28.9309 30.5678 29.0371 30.2842 29.1316L31.163 28.8188Z" fill="#FF49B0"/>
<path d="M31.029 28.3309C30.7372 28.4383 30.4454 28.5433 30.1501 28.6437C29.5374 28.8515 29.8 29.8284 30.4186 29.6183C30.7127 29.5191 31.0056 29.414 31.2974 29.3055C31.9032 29.0814 31.6417 28.1045 31.029 28.3309Z" fill="#B01E65"/>
<path d="M40.4486 33.1033C41.3877 33.1033 42.1491 32.3419 42.1491 31.4028C42.1491 30.4636 41.3877 29.7023 40.4486 29.7023C39.5094 29.7023 38.748 30.4636 38.748 31.4028C38.748 32.3419 39.5094 33.1033 40.4486 33.1033Z" fill="#FF49B0"/>
<path d="M40.451 33.618C39.5126 33.618 38.6396 33.0181 38.3373 32.0785C37.965 30.9161 38.6058 29.6661 39.7706 29.2914C40.9354 28.9133 42.1842 29.5599 42.5588 30.7258C42.7398 31.2884 42.6896 31.8895 42.42 32.4147C42.1503 32.9422 41.6905 33.332 41.1268 33.5129C40.9015 33.5853 40.6739 33.618 40.451 33.618ZM40.4487 30.217C40.3273 30.217 40.2059 30.2368 40.0845 30.2741C39.4636 30.4737 39.1205 31.1413 39.3201 31.7622C39.5196 32.3855 40.1884 32.7286 40.8105 32.529C41.1116 32.4322 41.3567 32.2244 41.5014 31.9431C41.645 31.6619 41.6718 31.3421 41.5761 31.0409C41.4781 30.7387 41.2703 30.4936 40.9879 30.3477C40.8198 30.2613 40.6354 30.217 40.4487 30.217Z" fill="#B01E65"/>
<path d="M27.1239 40.5134C27.1239 40.5134 23.8571 45.7994 25.0406 48.8304L27.1239 40.5134Z" fill="#FF49B0"/>
<path d="M26.687 40.2578C25.2083 42.6773 23.6035 46.111 24.5523 48.9646C24.7566 49.5785 25.7335 49.3159 25.5269 48.6973C24.6691 46.1156 26.2237 42.9539 27.5589 40.7678C27.8997 40.2111 27.0255 39.7034 26.687 40.2578Z" fill="#B01E65"/>
<path d="M34.7689 30.8307C35.708 30.8307 36.4694 30.0694 36.4694 29.1302C36.4694 28.191 35.708 27.4297 34.7689 27.4297C33.8297 27.4297 33.0684 28.191 33.0684 29.1302C33.0684 30.0694 33.8297 30.8307 34.7689 30.8307Z" fill="#FF49B0"/>
<path d="M34.7737 31.3478C34.5566 31.3478 34.3406 31.3163 34.1294 31.2521C32.9599 30.8996 32.2947 29.6613 32.6471 28.4906C32.8175 27.9246 33.1992 27.4577 33.7209 27.1776C34.2403 26.8987 34.8402 26.838 35.4074 27.0072C35.9746 27.1776 36.4415 27.5604 36.7204 28.081C37.0005 28.6027 37.0613 29.2014 36.8908 29.7698C36.7193 30.337 36.3376 30.8039 35.8147 31.0828C35.4891 31.2591 35.132 31.3478 34.7737 31.3478ZM34.7678 27.9456C34.5753 27.9456 34.385 27.9934 34.2088 28.0868C33.9298 28.2374 33.7256 28.486 33.6345 28.7894C33.5435 29.0929 33.575 29.4138 33.7244 29.6905C33.8738 29.9694 34.1236 30.1737 34.4282 30.2647C34.7317 30.3569 35.0503 30.3254 35.3281 30.1748C35.607 30.0242 35.8113 29.7757 35.9023 29.4722C35.9933 29.1687 35.963 28.8478 35.8124 28.57C35.663 28.2911 35.4133 28.0868 35.1098 27.9958C34.9978 27.9619 34.8834 27.9456 34.7678 27.9456Z" fill="#B01E65"/>
<path d="M35.5345 36.551C36.4737 36.551 37.235 35.7897 37.235 34.8505C37.235 33.9114 36.4737 33.15 35.5345 33.15C34.5953 33.15 33.834 33.9114 33.834 34.8505C33.834 35.7897 34.5953 36.551 35.5345 36.551Z" fill="#FF49B0"/>
<path d="M35.5318 37.0668C35.3194 37.0668 35.1058 37.0364 34.8934 36.9722C34.3273 36.8018 33.8605 36.4202 33.5804 35.8985C33.3003 35.3768 33.2396 34.778 33.4111 34.2108C33.5815 33.6447 33.9632 33.1791 34.4849 32.8978C35.0054 32.6177 35.6053 32.5558 36.1714 32.7285C37.3409 33.081 38.0061 34.3193 37.6537 35.49C37.3665 36.447 36.4842 37.0668 35.5318 37.0668ZM35.191 35.9849C35.8143 36.1739 36.4795 35.8168 36.6674 35.1912C36.7585 34.8877 36.727 34.5679 36.5776 34.2902C36.4282 34.0112 36.1784 33.807 35.8749 33.7159C35.5727 33.6237 35.2517 33.6576 34.9739 33.807C34.695 33.9552 34.4907 34.2061 34.3997 34.5096C34.3087 34.8119 34.3402 35.1317 34.4896 35.4106C34.6401 35.6896 34.8876 35.8938 35.191 35.9849Z" fill="#B01E65"/>
</svg>
