<svg width="64" height="64" viewBox="0 0 64 64" fill="none" xmlns="http://www.w3.org/2000/svg">
<path d="M31.9986 64C14.3553 64 0 49.6447 0 32C0 14.3553 14.3553 0 31.9986 0C49.6433 0 63.9986 14.3553 63.9986 32C63.9986 49.6447 49.6433 64 31.9986 64ZM31.9986 1.18444C15.0065 1.18444 1.18309 15.0078 1.18309 32C1.18309 48.9922 15.0065 62.8142 31.9986 62.8142C48.9908 62.8142 62.8142 48.9922 62.8142 32C62.8142 15.0078 48.9895 1.18444 31.9986 1.18444Z" fill="#4FAB1A"/>
<path d="M22.8722 30.7005C22.6256 30.261 22.4139 29.796 22.2411 29.3016C21.413 26.9194 21.7976 24.6764 22.4809 22.3263C22.9445 20.7292 22.7623 18.9324 21.7386 17.3313C20.4443 15.3068 17.9816 14.2134 15.6168 14.6301C11.6347 15.3322 9.51638 19.4107 10.9353 22.948C12.0635 25.759 15.1505 26.575 17.1241 28.6357C19.2773 30.884 19.6176 34.3141 19.0589 37.2752C18.8405 38.4288 19.0576 39.6802 19.8387 40.7923C20.8222 42.1938 22.5827 42.9455 24.2736 42.6748C27.3393 42.1858 28.9806 39.0679 27.8967 36.3667C27.5617 35.5307 27.0056 34.8527 26.325 34.365C24.9221 33.3601 23.7015 32.1757 22.8722 30.7005Z" fill="#89CE60"/>
<path d="M41.2269 18.9524C40.7888 19.1989 40.3225 19.4106 39.8294 19.5821C37.4458 20.4102 35.2042 20.0256 32.8528 19.3423C31.2556 18.8787 29.4589 19.0609 27.8591 20.0859C25.8346 21.3802 24.7412 23.8429 25.1579 26.2078C25.86 30.1898 29.9399 32.3082 33.4758 30.8879C36.2869 29.7611 37.1028 26.6727 39.1649 24.6991C41.4132 22.5472 44.8419 22.2069 47.8043 22.7657C48.9566 22.9827 50.2081 22.767 51.3215 21.9859C52.7216 21.0024 53.4733 19.2418 53.204 17.5509C52.7136 14.4853 49.5957 12.8439 46.8959 13.9279C46.0585 14.2629 45.3819 14.8189 44.8928 15.4996C43.8879 16.9024 42.7021 18.123 41.2269 18.9524Z" fill="#89CE60"/>
<path d="M30.9233 48.0451C31.2797 47.6887 31.6709 47.3591 32.0997 47.0617C34.1711 45.6226 36.4341 45.3895 38.8821 45.4136C40.5448 45.4297 42.2264 44.7705 43.4912 43.3529C45.091 41.5602 45.4809 38.8952 44.4425 36.73C42.6927 33.0842 38.1947 32.1436 35.1707 34.4629C32.7696 36.3066 32.8138 39.4995 31.3614 41.9568C29.7764 44.6352 26.5647 45.8879 23.5621 46.1465C22.3924 46.2484 21.2454 46.7923 20.3852 47.8468C19.3013 49.1706 19.0507 51.0692 19.7676 52.6234C21.0659 55.4425 24.5107 56.1835 26.8193 54.4135C27.5348 53.8642 28.0372 53.1487 28.3239 52.3608C28.9135 50.7356 29.7254 49.2403 30.9233 48.0451Z" fill="#89CE60"/>
<path d="M11.632 36.1646C12.9669 36.1646 14.0491 35.0824 14.0491 33.7474C14.0491 32.4125 12.9669 31.3303 11.632 31.3303C10.297 31.3303 9.21484 32.4125 9.21484 33.7474C9.21484 35.0824 10.297 36.1646 11.632 36.1646Z" fill="#89CE60"/>
<path d="M36.7464 16.0101C38.0814 16.0101 39.1635 14.928 39.1635 13.593C39.1635 12.2581 38.0814 11.1759 36.7464 11.1759C35.4115 11.1759 34.3293 12.2581 34.3293 13.593C34.3293 14.928 35.4115 16.0101 36.7464 16.0101Z" fill="#89CE60"/>
<path d="M35.5874 54.5581C36.9223 54.5581 38.0045 53.4759 38.0045 52.1409C38.0045 50.806 36.9223 49.7238 35.5874 49.7238C34.2525 49.7238 33.1703 50.806 33.1703 52.1409C33.1703 53.4759 34.2525 54.5581 35.5874 54.5581Z" fill="#89CE60"/>
<path fill-rule="evenodd" clip-rule="evenodd" d="M37.5103 16.6023C36.2374 16.6023 35.053 15.789 34.643 14.5135C34.1352 12.9338 35.0074 11.2348 36.5871 10.7284C38.1735 10.2165 39.8631 11.0942 40.3709 12.6725C40.6188 13.4376 40.5504 14.2536 40.182 14.9691C39.8162 15.6832 39.1918 16.2124 38.4268 16.4563C38.1226 16.5555 37.8131 16.6023 37.5103 16.6023ZM37.5063 11.7695C37.3227 11.7695 37.1351 11.7976 36.9502 11.8565C35.9922 12.1634 35.463 13.1937 35.7698 14.1517C36.078 15.1084 37.1137 15.6336 38.065 15.3308L38.0663 15.3295C38.5299 15.1821 38.9078 14.8605 39.1315 14.4277C39.3539 13.9936 39.3941 13.5006 39.2454 13.037C38.9962 12.2625 38.278 11.7695 37.5063 11.7695ZM28.698 31.0754C29.7123 31.6382 30.8311 31.9249 31.9566 31.9249C32.802 31.9249 33.6488 31.7628 34.4594 31.4385C36.3829 30.6657 37.4333 29.0894 38.4499 27.5637L38.4509 27.5623C39.0458 26.6686 39.6072 25.8258 40.3347 25.1291C42.9435 22.6316 46.884 23.0523 48.457 23.3471C49.8357 23.6097 51.2479 23.2975 52.4243 22.4708C54.0228 21.348 54.8575 19.3811 54.5521 17.4584C54.2935 15.8479 53.3475 14.4718 51.9567 13.684C50.5646 12.8975 48.9179 12.7849 47.4387 13.3798C46.5316 13.7429 45.7491 14.3566 45.1743 15.1551C44.0984 16.6531 42.9622 17.7277 41.7001 18.4365C41.278 18.6723 40.8399 18.8692 40.3964 19.0233C38.2191 19.7804 36.1771 19.4722 33.7801 18.7741C31.9097 18.2328 29.9669 18.5196 28.3001 19.5861C26.0692 21.0144 24.8781 23.7156 25.3363 26.3109C25.6954 28.3515 26.9214 30.0879 28.698 31.0754ZM28.9378 20.5843C29.861 19.9947 30.886 19.6919 31.9231 19.6919C32.4322 19.6919 32.9454 19.7643 33.4505 19.9103C35.7122 20.5655 38.1655 21.0479 40.7849 20.1408C41.2941 19.9639 41.7965 19.7375 42.2775 19.4682L42.2789 19.4668C43.6965 18.671 44.9573 17.4865 46.1364 15.8452C46.5785 15.2302 47.1814 14.7572 47.8795 14.4772C49.0251 14.0163 50.2953 14.1034 51.3726 14.7117C52.4485 15.3213 53.1814 16.3892 53.381 17.6433C53.6128 19.0984 52.9536 20.6486 51.7424 21.5008C50.8286 22.1426 49.7406 22.3837 48.6754 22.1827C44.9667 21.486 41.6304 22.2457 39.5147 24.2729C38.6947 25.0608 38.069 25.9973 37.4634 26.9058C36.5067 28.3461 35.601 29.7034 34.0159 30.3398C32.4657 30.9629 30.7373 30.8517 29.2728 30.041C27.8097 29.2264 26.8008 27.7928 26.502 26.1059C26.1255 23.9755 27.1049 21.758 28.9378 20.5843ZM20.115 41.1325C21.0837 42.5125 22.6808 43.3231 24.3329 43.3231C24.5982 43.3231 24.8635 43.3031 25.1301 43.2615C26.742 43.0029 28.118 42.057 28.9058 40.6662C29.6937 39.2754 29.8036 37.6287 29.2087 36.1482C28.8455 35.2411 28.2305 34.4573 27.432 33.8851C25.9327 32.8106 24.8594 31.6743 24.152 30.4095H24.1507C23.9162 29.9942 23.7192 29.556 23.5638 29.1058C22.8081 26.9312 23.1163 24.8879 23.8117 22.4896C24.3543 20.6218 24.0649 18.6763 22.9997 17.0095C21.5714 14.7787 18.8716 13.5835 16.2749 14.0471C14.2343 14.4075 12.4979 15.6322 11.5117 17.4075C10.5242 19.1828 10.3916 21.285 11.1473 23.1689C11.919 25.0916 13.4974 26.1434 15.0235 27.1604L15.0287 27.1638C15.9204 27.7574 16.7626 28.3181 17.458 29.0442C19.9555 31.6543 19.5348 35.5935 19.2374 37.1651C18.9761 38.5465 19.2883 39.9561 20.115 41.1325ZM16.4799 15.2141C16.7827 15.1605 17.0882 15.1337 17.3924 15.1337C19.2213 15.1337 20.9953 16.077 22.0029 17.6487C22.8805 19.0234 23.119 20.6245 22.6728 22.16C22.0176 24.4243 21.5352 26.8803 22.4437 29.4944C22.6219 30.0116 22.8497 30.514 23.1163 30.9897C23.9122 32.4073 25.0966 33.6681 26.7406 34.8472C27.3556 35.288 27.8286 35.8896 28.1086 36.589C28.5682 37.7319 28.4824 39.0048 27.8741 40.0807C27.2645 41.1579 26.1966 41.8908 24.9412 42.0905C23.4955 42.3249 21.9372 41.6644 21.085 40.4518C20.4432 39.5394 20.2021 38.4501 20.4017 37.3849C21.1011 33.6815 20.3401 30.3439 18.3142 28.2269C17.5264 27.4055 16.5885 26.7798 15.68 26.1756L15.6782 26.1743L15.6782 26.1743C14.2385 25.2154 12.8808 24.3111 12.246 22.7281C11.6243 21.1752 11.7328 19.4468 12.5461 17.9836C13.3594 16.5218 14.7917 15.5116 16.4799 15.2141ZM24.7708 55.9609C24.3501 55.9609 23.9254 55.91 23.506 55.8055C21.9558 55.4223 20.6735 54.3504 19.9915 52.8685C19.1769 51.1012 19.4516 48.9815 20.6896 47.4688C21.5994 46.3567 22.8722 45.6761 24.2737 45.5542C25.8668 45.4162 29.7739 44.761 31.6149 41.6525C32.1279 40.7871 32.4414 39.8226 32.7736 38.8005L32.7738 38.7999L32.7744 38.798C33.3424 37.0554 33.9294 35.2542 35.5728 33.9925C37.1847 32.7558 39.2414 32.319 41.219 32.7906C43.1953 33.2622 44.8433 34.6048 45.7411 36.4712C46.8799 38.8468 46.4592 41.7717 44.6973 43.748C43.3815 45.2219 41.5901 46.0352 39.6406 46.0057C37.1311 45.9977 35.0905 46.2348 33.2026 47.5479C32.8127 47.8185 32.4442 48.1281 32.1066 48.4657C31.0789 49.4907 30.2736 50.8319 29.6439 52.563C29.3076 53.4848 28.7194 54.2874 27.9436 54.8823C27.0151 55.5897 25.9044 55.9609 24.7708 55.9609ZM39.6487 33.7875C38.4482 33.7875 37.2704 34.1814 36.2936 34.9317C34.9417 35.9668 34.4359 37.517 33.9011 39.1561L33.898 39.1657L33.8939 39.1783L33.8939 39.1783C33.5575 40.2114 33.2096 41.2799 32.6331 42.2554C31.1392 44.7784 28.1299 46.4103 24.3742 46.7346C23.2943 46.827 22.3108 47.3549 21.6047 48.2178C20.6668 49.3647 20.4511 51.0355 21.0674 52.3741C21.598 53.5277 22.5922 54.3584 23.7914 54.6559C24.9946 54.9533 26.242 54.6907 27.2201 53.9417C27.8177 53.4835 28.2705 52.8658 28.5291 52.157C29.2205 50.2584 30.1155 48.7779 31.2678 47.6269C31.6564 47.2384 32.0798 46.8846 32.526 46.5751C34.7984 44.9941 37.2852 44.7985 39.6514 44.8199H39.7063C41.282 44.8199 42.7398 44.1607 43.813 42.9575C45.2614 41.3336 45.6071 38.9326 44.6718 36.983C43.9296 35.4395 42.5723 34.3315 40.9443 33.9402C40.5129 33.8384 40.0788 33.7875 39.6487 33.7875ZM9.52992 34.6678C9.93992 35.9434 11.123 36.7553 12.3959 36.7553C12.7 36.7553 13.0082 36.7098 13.3137 36.6106C14.0788 36.3667 14.7045 35.8375 15.0703 35.122C15.4387 34.4079 15.5057 33.5919 15.2592 32.8268C14.7514 31.2471 13.0511 30.3722 11.4754 30.8827C10.7103 31.1265 10.086 31.6571 9.71884 32.3713C9.35038 33.0868 9.28339 33.9027 9.52992 34.6678ZM11.8358 32.0109C12.0207 31.9519 12.207 31.9238 12.3919 31.9238C13.1636 31.9238 13.8831 32.4168 14.131 33.1899C14.2797 33.6549 14.2395 34.1479 14.0171 34.5821C13.7934 35.0148 13.4155 35.3364 12.9519 35.4838L12.9506 35.4851C11.9993 35.7879 10.9636 35.2627 10.6567 34.3047C10.3486 33.348 10.8778 32.3177 11.8358 32.0109ZM34.974 54.8166C35.4054 55.039 35.873 55.1516 36.346 55.1516C36.6542 55.1516 36.9663 55.1033 37.2705 55.0042C38.8489 54.4977 39.7211 52.8014 39.2146 51.2204C38.7082 49.642 37.0119 48.7671 35.4295 49.2776C33.8512 49.7841 32.9789 51.4803 33.4854 53.0614C33.7292 53.8264 34.2598 54.4508 34.974 54.8166ZM35.7913 50.4017C35.9762 50.3441 36.1624 50.316 36.3473 50.316C37.1191 50.316 37.8386 50.8104 38.0865 51.5822C38.3933 52.5402 37.864 53.5705 36.906 53.8787C35.9547 54.1815 34.919 53.6563 34.6122 52.6983C34.3054 51.7403 34.8333 50.7099 35.7913 50.4017Z" fill="#4FAB1A"/>
</svg>
