<svg width="64" height="64" viewBox="0 0 64 64" fill="none" xmlns="http://www.w3.org/2000/svg">
<path d="M31.9986 64C14.3553 64 0 49.6447 0 32C0 14.3553 14.3553 0 31.9986 0C49.6433 0 63.9986 14.3553 63.9986 32C63.9986 49.6447 49.6433 64 31.9986 64ZM31.9986 1.18444C15.0065 1.18444 1.18309 15.0078 1.18309 32C1.18309 48.9922 15.0065 62.8142 31.9986 62.8142C48.9908 62.8142 62.8142 48.9922 62.8142 32C62.8142 15.0078 48.9895 1.18444 31.9986 1.18444Z" fill="#E27B07"/>
<path d="M18.8695 45.7157C17.5232 51.8086 13.9486 47.2883 12.5709 45.3325C11.1932 43.3768 8.38049 38.6335 13.8805 38.6335" fill="#FF9F31"/>
<path d="M16.8229 49.2847C15.2703 49.2857 13.2558 47.953 11.7012 45.7462C9.68033 42.878 9.31167 39.7761 10.8622 38.6833C11.7023 38.0917 12.9448 38.2055 14.27 38.9933L13.7135 39.9278C12.7875 39.3765 11.955 39.2429 11.4887 39.5721C10.602 40.1976 10.8357 42.6295 12.5899 45.1197C14.3453 47.6111 16.5551 48.6475 17.443 48.0242C17.9283 47.6833 18.0748 46.8169 17.8359 45.7049L18.8999 45.4776C19.2376 47.0514 18.935 48.3045 18.0694 48.9141C17.7118 49.1657 17.2881 49.2847 16.8229 49.2847Z" fill="#E27B07"/>
<path d="M43.5469 34.2855C43.8351 33.9493 43.9357 33.6594 43.7324 33.4625C42.7129 32.4753 39.9827 33.7341 38.9095 34.2243C37.5909 34.827 36.2665 35.4828 34.855 35.8712C32.5315 36.5107 30.1401 35.9054 27.893 35.4433C27.2994 35.3213 29.9051 36.7609 29.5788 37.2445C29.4856 37.3827 29.4166 37.5451 29.4512 37.6987C29.4812 37.8313 29.5839 37.9378 29.6918 38.0293C30.2558 38.5075 31.0383 38.7281 31.8164 38.8345C34.118 39.1492 36.5271 38.4576 38.6098 37.494C39.1919 37.2247 42.5321 35.4692 43.5469 34.2855Z" fill="#FF9F31"/>
<path d="M32.9787 39.4552C32.5561 39.4552 32.144 39.4276 31.7416 39.3724C30.6945 39.23 29.9075 38.9253 29.3394 38.4442C29.1907 38.3178 28.9869 38.116 28.9199 37.8176C28.885 37.6616 28.8774 37.4279 29.008 37.1486C28.7978 36.9097 28.2487 36.505 27.9939 36.3181C27.4438 35.9124 27.1125 35.6683 27.309 35.2253L27.4873 34.8261L28.5748 35.0299C30.6073 35.4558 32.7111 35.8966 34.7108 35.3465C35.8843 35.0237 37.028 34.4947 38.1346 33.9819L38.6826 33.7291C40.7512 32.7872 42.9868 31.9822 44.1101 33.0717C44.3067 33.2617 44.6835 33.7949 43.9594 34.6391C42.8412 35.9432 39.3017 37.7729 38.8375 37.9874C36.7285 38.9635 34.7637 39.4552 32.9787 39.4552ZM29.778 36.382C30.1316 36.7644 30.2951 37.153 30.0285 37.548C30.448 37.9579 31.0523 38.1809 31.8891 38.2957C33.7857 38.5505 35.9659 38.1183 38.3806 37.0001C39.0009 36.7146 42.2154 35.0026 43.1328 33.9322C43.1902 33.8654 43.2273 33.8133 43.2528 33.774C42.6847 33.4139 41.3126 33.7262 39.1654 34.7042L38.5909 34.9697C37.445 35.4997 36.2589 36.0486 34.9993 36.3958C33.24 36.879 31.4908 36.7006 29.778 36.382Z" fill="#E27B07"/>
<path d="M50.3816 40.7053C50.4928 40.6674 50.6016 40.6248 50.7076 40.5761C50.926 40.476 51.1197 40.2915 51.1665 40.0574C51.2188 39.7976 51.0608 39.5491 50.8788 39.356C50.3135 38.7558 48.7948 38.5169 46.918 38.5388C45.1844 38.5591 43.4612 38.6537 41.7242 38.6651C38.7661 38.6842 33.8355 37.7392 30.6803 36.4762C29.6953 36.0819 30.1273 37.3385 30.5142 38.9953C30.6363 39.5183 31.0223 39.9444 31.4562 40.2643C32.4916 41.028 33.8102 41.2937 35.0902 41.4655C37.3109 41.7634 39.5561 41.8391 41.7967 41.9144C42.7609 41.9469 43.7649 42.0228 44.7248 41.9659C45.6212 41.9126 46.3944 41.4674 47.2456 41.2485C48.236 40.994 49.4013 41.039 50.3816 40.7053Z" fill="#FF9F31"/>
<path d="M43.9722 42.5296C43.4741 42.5296 42.976 42.5084 42.4876 42.4871L41.7783 42.4584C39.5546 42.383 37.2628 42.3066 35.0179 42.0039C33.6724 41.8233 32.2707 41.5408 31.1333 40.702C30.5174 40.2475 30.1202 39.7006 29.9843 39.1197L29.843 38.5303C29.5307 37.2528 29.3427 36.4807 29.8366 36.0528C30.0988 35.8277 30.4503 35.798 30.8826 35.9721C33.8933 37.1764 38.7517 38.1406 41.721 38.1215C42.6321 38.1151 43.5401 38.0864 44.447 38.0567C45.2679 38.0312 46.0888 38.0047 46.9118 37.9951C49.1727 37.9728 50.6308 38.3009 51.2742 38.9838C51.7256 39.4606 51.7553 39.8885 51.7001 40.1636C51.6215 40.549 51.3348 40.8868 50.9333 41.0706C50.8144 41.1257 50.687 41.1747 50.5574 41.2192L50.5564 41.2202C49.9564 41.4241 49.3182 41.4963 48.7001 41.5675C48.2296 41.6206 47.7857 41.6716 47.3822 41.7757C47.0859 41.8522 46.7992 41.9573 46.5146 42.0624C45.9677 42.263 45.4038 42.4702 44.7571 42.5084C44.4968 42.5244 44.2346 42.5296 43.9722 42.5296ZM30.6352 37.0437C30.6788 37.3677 30.8021 37.8731 30.8997 38.2723L31.0441 38.8724C31.1398 39.2844 31.4965 39.6189 31.779 39.8271C32.7187 40.5206 33.9601 40.7648 35.1622 40.9273C37.3541 41.2215 39.6182 41.2978 41.808 41.3712L42.5354 41.4009C43.2554 41.4316 44.0009 41.4635 44.6922 41.4232C45.1785 41.3945 45.6458 41.2236 46.1397 41.042C46.4593 40.9241 46.779 40.8073 47.1114 40.7224C47.5871 40.6003 48.0904 40.5429 48.5768 40.4867C49.163 40.4198 49.7173 40.3571 50.2058 40.1904C50.2992 40.1585 50.3905 40.1235 50.4776 40.0832C50.5784 40.0365 50.6283 39.9739 50.6337 39.9494C50.6327 39.9494 50.6199 39.874 50.484 39.7307C50.3332 39.5694 49.627 39.0458 46.9243 39.0829C46.1088 39.0924 45.2953 39.118 44.482 39.1445C43.5655 39.1742 42.6479 39.2029 41.7273 39.2093C41.6974 39.2093 41.6667 39.2093 41.636 39.2093C38.5967 39.209 33.734 38.2501 30.6352 37.0437Z" fill="#E27B07"/>
<path d="M46.9705 44.3501C48.2417 44.5372 50.828 44.2793 51.8542 44.0982C52.5279 43.9793 54.1886 43.6262 54.1448 42.6956C54.0867 41.4599 51.4284 41.1781 50.5464 41.1374C48.7902 41.0561 48.4004 41.0819 46.7117 41.0312C44.5213 40.9656 42.3677 41.0187 40.1759 40.8488C36.8706 40.5927 33.6245 40.0225 30.4902 38.937C30.6926 39.117 31.9169 39.7722 31.8462 40.042C31.7852 40.2789 31.9126 40.5196 32.0462 40.7246C33.151 42.4206 34.9592 43.586 36.8978 44.2055C38.8362 44.8252 40.9064 44.938 42.9438 44.862C44.8803 44.7898 45.049 44.0672 46.9705 44.3501Z" fill="#FF9F31"/>
<path d="M41.8717 45.4267C39.871 45.4267 38.2175 45.1984 36.7329 44.7237C34.5093 44.0133 32.6837 42.6986 31.5911 41.0208C31.4392 40.7881 31.2777 40.4887 31.2874 40.1447C31.1164 39.996 30.7437 39.7581 30.5684 39.6467C30.3645 39.5161 30.1988 39.4046 30.1297 39.344L28.0918 37.5312L30.6691 38.4232C33.5311 39.4151 36.6553 40.031 40.2192 40.307C41.6306 40.4164 43.0611 40.4324 44.4448 40.4472C45.2041 40.4567 45.9634 40.4653 46.728 40.4876C47.3906 40.5077 47.8526 40.5163 48.2752 40.5237C48.9336 40.5343 49.4995 40.5449 50.5721 40.5949C51.5162 40.6374 54.6054 40.9145 54.6883 42.6699C54.7338 43.6437 53.8122 44.3043 51.9495 44.6333C50.8439 44.8299 48.204 45.0825 46.8925 44.8881C45.925 44.7449 45.4822 44.8807 44.9195 45.0538C44.4321 45.2025 43.8799 45.3714 42.9644 45.4055C42.5885 45.4193 42.2243 45.4267 41.8717 45.4267ZM32.3896 40.0947C32.3865 40.1223 32.381 40.1499 32.3737 40.1786C32.3747 40.1849 32.3843 40.2476 32.5023 40.4271C33.4579 41.8958 35.0784 43.0534 37.0645 43.6873C38.686 44.2066 40.5391 44.4073 42.9243 44.3181C43.6974 44.2894 44.1572 44.1492 44.6022 44.0144C45.2414 43.818 45.8456 43.6342 47.0499 43.8115C48.234 43.9879 50.7455 43.7425 51.7608 43.563C53.2369 43.3018 53.6108 42.8982 53.6032 42.7208C53.5798 42.2323 52.1685 41.7555 50.5226 41.6802C49.4649 41.6313 48.9062 41.6218 48.2564 41.6102C47.8295 41.6027 47.3644 41.5953 46.6964 41.5751C45.9381 41.5516 45.1853 41.5432 44.4334 41.5347C43.0317 41.5199 41.5831 41.5029 40.1348 41.3903C37.3169 41.1725 34.7629 40.7456 32.3896 40.0947Z" fill="#E27B07"/>
<path d="M17.9037 45.5668C19.4275 45.5668 21.8103 45.0669 23.2369 45.5668C24.6863 46.0745 27.0498 45.7516 28.1892 46.7737C29.5892 48.0295 35.6593 48.2442 37.3319 49.142C39.0063 50.0406 34.464 45.9222 36.3372 46.2306C38.9173 46.6553 41.5369 46.8152 44.1513 46.837C45.4763 46.848 46.8013 46.8225 48.1254 46.7737C48.9079 46.7449 50.5431 46.7163 50.5334 45.5668C50.5274 44.8714 49.9626 44.4938 49.3451 44.3271C47.6272 43.8631 45.6745 43.927 43.9055 43.7921C41.9625 43.6435 40.0179 43.4765 38.0948 43.1587C36.8294 42.9495 35.5804 42.5106 34.6044 41.663C34.272 41.3744 33.9754 41.0466 33.7183 40.6903C32.5565 39.0801 31.8665 37.328 30.227 36.1029C28.79 35.0289 26.956 34.5364 25.1718 34.4957C21.3676 34.4091 16.4676 35.716 13.8711 38.6399" fill="#FF9F31"/>
<path d="M44.7968 47.3837C44.5781 47.3837 44.3614 47.3827 44.1469 47.3805C41.1957 47.3562 38.612 47.1554 36.2491 46.7668C34.1252 46.4175 32.251 45.8131 30.6782 44.9689C29.1098 44.1267 27.8056 42.9489 26.5439 41.8116L26.1395 41.4463C25.2144 40.6169 23.9624 39.5985 22.4842 39.0803C21.1812 38.6236 19.3887 38.5366 18.3098 39.3617L17.6492 38.4995C19.1445 37.3525 21.3819 37.5437 22.8431 38.0545C24.504 38.6354 25.8654 39.7398 26.8657 40.6372L27.2736 41.0035C28.5415 42.1494 29.7404 43.2304 31.1922 44.011C32.6597 44.7978 34.4205 45.3639 36.4253 45.6943C38.7319 46.0734 41.2603 46.2699 44.1564 46.2931C45.384 46.3048 46.6753 46.2825 48.1057 46.2305C49.0711 46.1966 49.9949 46.0935 49.9896 45.5721C49.9874 45.2345 49.7229 44.9923 49.2037 44.8521C48.0207 44.5325 46.6826 44.4741 45.3881 44.4178C44.872 44.3945 44.3611 44.3722 43.8642 44.3349C41.9876 44.1905 39.9891 44.0238 38.0066 43.6956C36.457 43.4396 35.1935 42.8939 34.2482 42.074C33.8873 41.7585 33.56 41.4006 33.2776 41.0078C32.9144 40.5064 32.5968 39.9904 32.2826 39.4807C31.6007 38.3731 30.9572 37.3271 29.9017 36.538C28.6635 35.613 26.9781 35.0811 25.159 35.0396C21.5824 34.9397 16.8089 36.1504 14.2783 39.0008L13.4648 38.2787C16.228 35.1682 21.3434 33.8822 25.1844 33.9524C27.2277 33.9992 29.1339 34.6076 30.5527 35.6675C31.775 36.5807 32.5033 37.7647 33.2085 38.9106C33.509 39.3981 33.8127 39.8919 34.159 40.3719C34.3937 40.6969 34.6634 40.9932 34.9618 41.2534C35.7519 41.9393 36.8362 42.4003 38.1837 42.6234C40.1229 42.943 42.0949 43.1087 43.947 43.2499C44.4323 43.287 44.9314 43.3093 45.4358 43.3317C46.7887 43.3901 48.1884 43.4517 49.4872 43.8032C50.4907 44.074 51.0705 44.7154 51.0769 45.5628C51.0918 47.2131 49.0698 47.2853 48.2053 47.3162C46.9588 47.3613 45.848 47.3837 44.7968 47.3837Z" fill="#E27B07"/>
<path d="M37.4562 50.285C37.1334 50.285 36.853 50.1205 36.6938 50.028C35.5448 49.357 34.2078 49.1307 32.7923 48.8897C31.9437 48.7463 31.0677 48.5976 30.2234 48.3439C29.3473 48.0816 28.5105 47.7067 27.7013 47.3446C26.5458 46.8274 25.4552 46.3399 24.2775 46.1584C22.8853 45.9449 21.9422 45.8185 20.5256 45.9268C19.6792 45.9895 18.8371 46.2687 18.0216 46.5395L17.6797 45.5074C18.5165 45.2291 19.4648 44.9149 20.446 44.8415C21.9753 44.7322 22.9756 44.8574 24.4431 45.0837C25.7653 45.2865 26.9748 45.828 28.1451 46.3516C28.9224 46.7 29.7273 47.0599 30.5354 47.3031C31.315 47.5366 32.1582 47.68 32.9737 47.8181C34.4232 48.0644 35.9216 48.3182 37.2426 49.0892C37.2533 49.0955 37.2701 49.1051 37.2894 49.1157C37.1076 47.9688 35.9258 47.2542 35.4245 46.9982C34.9147 46.7402 34.3764 46.5468 33.8049 46.342C33.2771 46.153 32.7313 45.9576 32.2056 45.7038L32.6793 44.7246C33.1529 44.9529 33.6477 45.1303 34.1713 45.3182C34.749 45.5253 35.3469 45.7399 35.9172 46.0298C37.3019 46.7338 38.1962 47.8085 38.3681 48.9788C38.4508 49.5395 38.2598 49.9919 37.8572 50.1915C37.7206 50.2585 37.5847 50.285 37.4562 50.285Z" fill="#E27B07"/>
<path d="M18.24 39.377C19.514 38.4873 21.1119 38.6021 22.5261 39.0659C23.1593 39.2735 23.4306 38.2763 22.8007 38.0697C21.1439 37.5264 19.2021 37.449 17.7186 38.4851C17.1775 38.8631 17.6932 39.759 18.24 39.377Z" fill="#E27B07"/>
<path d="M18.6085 45.2697C16.4727 46.4526 12.467 40.5884 14.2455 38.9989C14.7423 38.5549 14.0097 37.8263 13.515 38.2684C10.7985 40.6962 15.9144 47.9424 19.13 46.1616C19.7116 45.8396 19.1913 44.947 18.6085 45.2697Z" fill="#E27B07"/>
<path d="M31.4857 11.3138C31.3816 11.1759 31.183 11.176 31.0789 11.3139C30.1035 12.6067 26.1897 18.117 26.1547 23.341C26.1454 24.7607 26.2891 26.4685 27.1605 27.612C27.9728 28.678 29.2063 29.4047 30.5299 29.5618C32.0422 29.7413 33.6429 29.1949 34.7344 28.0752C35.9352 26.8434 36.2197 24.9934 36.2449 23.3415C36.2455 23.3007 36.2459 23.26 36.2462 23.2193C36.281 18.0018 32.4497 12.5919 31.4857 11.3138Z" fill="#FF9F31"/>
<path d="M31.1149 30.1396C30.8982 30.1396 30.6816 30.128 30.4659 30.1014C29.0036 29.9282 27.6412 29.1414 26.7279 27.9413C25.7073 26.6022 25.6022 24.6727 25.6108 23.3378C25.6469 18.0227 29.4731 12.5409 30.6444 10.9873C30.7973 10.7844 31.0299 10.6677 31.2816 10.6665C31.2816 10.6665 31.2816 10.6665 31.2826 10.6665C31.5332 10.6665 31.7647 10.7823 31.9188 10.9841L31.9198 10.9862C33.0709 12.5133 36.826 17.9081 36.7899 23.223L36.7889 23.3504C36.7528 25.6718 36.2079 27.3423 35.1238 28.4541C34.0735 29.5332 32.6101 30.1396 31.1149 30.1396ZM31.2828 11.9538C30.1391 13.5286 26.7302 18.6196 26.6983 23.3442C26.6856 25.1878 26.9787 26.476 27.5925 27.283C28.3296 28.2494 29.4233 28.8834 30.5936 29.0224C31.9624 29.1797 33.3918 28.6752 34.3444 27.6961C35.2269 26.7913 35.6707 25.3652 35.7015 23.3337L36.2462 23.2201L35.7025 23.2169C35.7343 18.5039 32.4074 13.5074 31.2828 11.9538Z" fill="#E27B07"/>
<path d="M28.0952 23.3554C27.8376 25.2302 28.7047 27.052 30.5804 27.6331C31.2168 27.8302 31.4891 26.8334 30.855 26.637C29.9452 26.355 29.3746 25.7078 29.1682 24.7868C29.1073 24.5156 29.0831 24.2394 29.0833 23.9617C29.0834 23.871 29.1283 23.3622 29.0914 23.6302C29.1807 22.98 28.1855 22.6987 28.0952 23.3554Z" fill="#E27B07"/>
</svg>
